<?xml version="1.0" encoding="UTF-8"?>
<svg width="200px" height="100px" viewBox="0 0 200 100" version="1.1" xmlns="http://www.w3.org/2000/svg" xmlns:xlink="http://www.w3.org/1999/xlink">
    <!-- Generator: Sketch 46.2 (44496) - http://www.bohemiancoding.com/sketch -->
    <title>adobe</title>
    <desc>Created with Sketch.</desc>
    <defs></defs>
    <g id="Page-1" stroke="none" stroke-width="1" fill="none" fill-rule="evenodd">
        <g id="adobe">
            <rect id="Rectangle" fill="#FFFFFF" opacity="0" x="0" y="0" width="200" height="100"></rect>
            <g transform="translate(75.000000, 16.000000)" id="Shape" fill-rule="nonzero" fill="#000000">
                <path d="M24.8215936,16.3570518 L36.5012749,44.0732271 L28.8485259,44.0732271 L25.3546614,35.2448606 L16.8033466,35.2448606 L24.8215936,16.3570518 Z M18.3609562,0.184063745 L0.017689243,0.184063745 L0.017689243,44.0756175 L18.3609562,0.184063745 Z M31.2776892,0.184063745 L49.6109163,0.184063745 L49.6109163,44.0756175 L31.2776892,0.184063745 Z M46.9740239,61.6214343 C46.9888446,60.0031076 46.5141036,58.8686056 45.6050199,58.8686056 C44.5680478,58.8686056 44.127012,60.387012 44.0956972,61.6214343 L46.9742629,61.6214343 L46.9740239,61.6214343 Z M44.0849402,63.6478088 C44.1184064,65.7322709 45.2146614,66.4111554 46.5750598,66.4111554 C47.4375299,66.4111554 48.1766534,66.2194422 48.7226295,66.0143426 L49.1089243,68.0758566 C48.3487649,68.4033466 47.1750598,68.6089243 46.0496414,68.6089243 C42.9738645,68.6089243 41.2941036,66.507012 41.2941036,62.9172908 C41.2941036,59.0643825 43.2423108,56.7504382 45.7871713,56.7504382 C48.2457371,56.7504382 49.6082869,58.7954582 49.6082869,62.1337052 C49.6082869,62.8979283 49.576494,63.3284462 49.5260558,63.6640637 L44.0844622,63.6478088 L44.0849402,63.6478088 Z M34.4060558,64.3673307 C34.4060558,64.6551394 34.4586454,64.9243028 34.5196016,65.1043028 C34.8071713,66.0683665 35.2941036,66.305498 35.6847012,66.305498 C36.7938645,66.305498 37.2408765,64.9006375 37.2408765,62.6541036 C37.2408765,60.6090837 36.7682869,59.2006375 35.6722709,59.2006375 C35.1286853,59.2006375 34.6706773,59.7910757 34.5133865,60.4245418 C34.4584064,60.6241434 34.4062948,60.9346614 34.4062948,61.1488446 L34.4062948,64.3675697 L34.4060558,64.3673307 Z M31.5399203,52.1569721 L34.4060558,52.1569721 L34.4060558,58.1612749 L34.4519522,58.1612749 C35.0165737,57.2751394 35.7683665,56.7690837 36.8600797,56.7690837 C39.0205578,56.7690837 40.1062948,59.2257371 40.1062948,62.438008 C40.1062948,66.496494 38.487251,68.6691633 36.3896414,68.6691633 C35.3904382,68.6691633 34.7247012,68.2259761 34.1242231,67.1034263 L34.063745,67.1034263 L33.9043028,68.4827092 L31.4438247,68.4827092 C31.4856574,67.527251 31.5399203,66.2189641 31.5399203,65.1862948 L31.5399203,52.1569721 L31.5399203,52.1569721 Z M25.6864542,66.4713944 C26.7803187,66.4713944 27.0513944,64.4096414 27.0513944,62.7026295 C27.0513944,61.0795219 26.7803187,58.9651793 25.6386454,58.9651793 C24.4290837,58.9651793 24.174741,61.08 24.174741,62.7028685 C24.174741,64.6618327 24.4941036,66.4716335 25.6615936,66.4716335 L25.6866932,66.4716335 L25.6864542,66.4713944 Z M25.6319522,68.6696414 C22.9905179,68.6696414 21.3339442,66.5493227 21.3339442,62.7533068 C21.3339442,58.6106773 23.4609562,56.7693227 25.6988845,56.7693227 C28.3044622,56.7693227 29.9380876,58.9931474 29.9380876,62.6861355 C29.9380876,67.4311554 27.3791235,68.6694024 25.6553785,68.6694024 L25.6321912,68.6694024 L25.6319522,68.6696414 Z M16.8518725,61.38 C16.8518725,61.1679681 16.8518725,60.9200797 16.8095618,60.6932271 C16.6984064,59.9079681 16.2805578,59.2006375 15.6086056,59.2006375 C14.4559363,59.2006375 14.0318725,60.8612749 14.0318725,62.803506 C14.0318725,65.0352191 14.6366534,66.305498 15.5689243,66.305498 C15.9949004,66.305498 16.4861355,66.087012 16.7529084,65.1504382 C16.8179283,64.9639841 16.8516335,64.7139442 16.8516335,64.4220717 L16.8516335,61.379761 L16.8518725,61.38 Z M19.7175299,52.1567331 L19.7175299,65.1862948 C19.7175299,66.2189641 19.7701195,67.4894821 19.8121912,68.4827092 L17.3371315,68.4827092 L17.1755378,67.1574502 L17.1167331,67.1574502 C16.7007968,67.974502 15.796255,68.6691633 14.7148207,68.6691633 C12.3444622,68.6691633 11.1688446,66.0533068 11.1688446,62.7504382 C11.1688446,58.7258964 12.921753,56.7688446 14.8324303,56.7688446 C15.8316335,56.7688446 16.4784861,57.2581673 16.8040637,57.9659761 L16.8523506,57.9659761 L16.8523506,52.1569721 L19.7177689,52.1569721 L19.7175299,52.1567331 Z M6.67888446,62.4167331 L6.09800797,58.9721116 C5.93211155,57.9788845 5.72031873,56.427012 5.55848606,55.3520319 L5.49561753,55.3520319 C5.32589641,56.4349004 5.08828685,58.030996 4.9140239,58.980239 L4.28820717,62.4169721 L6.67888446,62.4169721 L6.67888446,62.4167331 Z M3.9752988,64.6618327 L3.21920319,68.4850996 L0.427171315,68.4850996 L3.91003984,52.5791235 L7.33219124,52.5791235 L10.4961753,68.4850996 L7.68908367,68.4850996 L6.94996016,64.6618327 L3.9752988,64.6618327 L3.9752988,64.6618327 Z"></path>
            </g>
        </g>
    </g>
</svg>