<?xml version="1.0" encoding="UTF-8"?>
<svg width="200px" height="100px" viewBox="0 0 200 100" version="1.1" xmlns="http://www.w3.org/2000/svg" xmlns:xlink="http://www.w3.org/1999/xlink">
    <!-- Generator: Sketch 46.2 (44496) - http://www.bohemiancoding.com/sketch -->
    <title>airbnb</title>
    <desc>Created with Sketch.</desc>
    <defs></defs>
    <g id="Page-1" stroke="none" stroke-width="1" fill="none" fill-rule="evenodd">
        <g id="airbnb">
            <rect id="Rectangle" fill="#FFFFFF" opacity="0" x="0" y="0" width="200" height="100"></rect>
            <g transform="translate(20.000000, 25.000000)" id="Shape" fill-rule="nonzero" fill="#000000">
                <path d="M84.0872274,12.5109034 C84.0872274,14.305296 82.6417445,15.7507788 80.847352,15.7507788 C79.0529595,15.7507788 77.6074766,14.305296 77.6074766,12.5109034 C77.6074766,10.7165109 79.0031153,9.27102804 80.847352,9.27102804 C82.6915888,9.32087227 84.0872274,10.7663551 84.0872274,12.5109034 Z M70.728972,19.0404984 L70.728972,19.8380062 C70.728972,19.8380062 69.1838006,17.8442368 65.894081,17.8442368 C60.4610592,17.8442368 56.2242991,21.9813084 56.2242991,27.7133956 C56.2242991,33.3956386 60.411215,37.5825545 65.894081,37.5825545 C69.2336449,37.5825545 70.728972,35.5389408 70.728972,35.5389408 L70.728972,36.3862928 C70.728972,36.7850467 71.0280374,37.0841121 71.4267913,37.0841121 L75.4641745,37.0841121 L75.4641745,18.3426791 L71.4267913,18.3426791 C71.0280374,18.3426791 70.728972,18.6915888 70.728972,19.0404984 Z M70.728972,31.0529595 C69.9813084,32.1495327 68.4859813,33.0965732 66.6915888,33.0965732 C63.5015576,33.0965732 61.05919,31.1028037 61.05919,27.7133956 C61.05919,24.3239875 63.5015576,22.3302181 66.6915888,22.3302181 C68.4361371,22.3302181 70.0311526,23.3271028 70.728972,24.3738318 L70.728972,31.0529595 Z M78.4548287,18.3426791 L83.2398754,18.3426791 L83.2398754,37.0841121 L78.4548287,37.0841121 L78.4548287,18.3426791 Z M149.931464,17.8442368 C146.641745,17.8442368 145.096573,19.8380062 145.096573,19.8380062 L145.096573,9.32087227 L140.311526,9.32087227 L140.311526,37.0841121 L144.34891,37.0841121 C144.747664,37.0841121 145.046729,36.7352025 145.046729,36.3862928 L145.046729,35.5389408 C145.046729,35.5389408 146.5919,37.5825545 149.88162,37.5825545 C155.314642,37.5825545 159.551402,33.3956386 159.551402,27.7133956 C159.551402,22.0311526 155.314642,17.8442368 149.931464,17.8442368 L149.931464,17.8442368 Z M149.133956,33.046729 C147.28972,33.046729 145.844237,32.0996885 145.096573,31.0031153 L145.096573,24.3239875 C145.844237,23.3271028 147.439252,22.2803738 149.133956,22.2803738 C152.323988,22.2803738 154.766355,24.2741433 154.766355,27.6635514 C154.766355,31.0529595 152.323988,33.046729 149.133956,33.046729 L149.133956,33.046729 Z M137.819315,25.9688474 L137.819315,37.1339564 L133.034268,37.1339564 L133.034268,26.517134 C133.034268,23.4267913 132.037383,22.1806854 129.345794,22.1806854 C127.900312,22.1806854 126.404984,22.9283489 125.457944,24.0249221 L125.457944,37.0841121 L120.672897,37.0841121 L120.672897,18.3426791 L124.461059,18.3426791 C124.859813,18.3426791 125.158879,18.6915888 125.158879,19.0404984 L125.158879,19.8380062 C126.554517,18.3925234 128.398754,17.8442368 130.242991,17.8442368 C132.336449,17.8442368 134.080997,18.4423676 135.476636,19.6386293 C137.17134,21.0342679 137.819315,22.8286604 137.819315,25.9688474 L137.819315,25.9688474 Z M109.05919,17.8442368 C105.76947,17.8442368 104.224299,19.8380062 104.224299,19.8380062 L104.224299,9.32087227 L99.4392523,9.32087227 L99.4392523,37.0841121 L103.476636,37.0841121 C103.875389,37.0841121 104.174455,36.7352025 104.174455,36.3862928 L104.174455,35.5389408 C104.174455,35.5389408 105.719626,37.5825545 109.009346,37.5825545 C114.442368,37.5825545 118.679128,33.3956386 118.679128,27.7133956 C118.728972,22.0311526 114.492212,17.8442368 109.05919,17.8442368 L109.05919,17.8442368 Z M108.261682,33.046729 C106.417445,33.046729 104.971963,32.0996885 104.224299,31.0031153 L104.224299,24.3239875 C104.971963,23.3271028 106.566978,22.2803738 108.261682,22.2803738 C111.451713,22.2803738 113.894081,24.2741433 113.894081,27.6635514 C113.894081,31.0529595 111.451713,33.046729 108.261682,33.046729 L108.261682,33.046729 Z M95.3021807,17.8442368 C96.7476636,17.8442368 97.4953271,18.0934579 97.4953271,18.0934579 L97.4953271,22.529595 C97.4953271,22.529595 93.5077882,21.1838006 91.0155763,24.0249221 L91.0155763,37.1339564 L86.2305296,37.1339564 L86.2305296,18.3426791 L90.2679128,18.3426791 C90.6666667,18.3426791 90.9657321,18.6915888 90.9657321,19.0404984 L90.9657321,19.8380062 C91.8629283,18.7912773 93.8068536,17.8442368 95.3021807,17.8442368 L95.3021807,17.8442368 Z M45.6074766,35.3894081 C45.3582555,34.7912773 45.1090343,34.1433022 44.8598131,33.5950156 C44.4610592,32.6978193 44.0623053,31.8504673 43.7133956,31.0529595 L43.6635514,31.0031153 C40.2242991,23.5264798 36.54081,15.9501558 32.6529595,8.47352025 L32.5034268,8.17445483 C32.1046729,7.42679128 31.705919,6.62928349 31.3071651,5.8317757 C30.8087227,4.93457944 30.3102804,3.98753894 29.5127726,3.09034268 C27.917757,1.09657321 25.6249221,-3.55271368e-15 23.1825545,-3.55271368e-15 C20.6903427,-3.55271368e-15 18.447352,1.09657321 16.8024922,2.99065421 C16.0548287,3.88785047 15.5065421,4.83489097 15.0080997,5.73208723 C14.6093458,6.52959502 14.2105919,7.3271028 13.811838,8.07476636 L13.6623053,8.37383178 C9.82429907,15.8504673 6.08598131,23.4267913 2.64672897,30.9034268 L2.59688474,31.0031153 C2.24797508,31.8006231 1.84922118,32.6479751 1.45046729,33.5451713 C1.20124611,34.0934579 0.952024922,34.6915888 0.702803738,35.3395639 C0.0548286604,37.1838006 -0.144548287,38.9283489 0.104672897,40.7227414 C0.652959502,44.4610592 3.14517134,47.6012461 6.58442368,48.9968847 C7.88037383,49.5451713 9.22616822,49.7943925 10.6218069,49.7943925 C11.0205607,49.7943925 11.5190031,49.7445483 11.917757,49.694704 C13.5626168,49.4953271 15.2573209,48.9470405 16.9021807,48 C18.9457944,46.8535826 20.8897196,45.2087227 23.082866,42.8161994 C25.2760125,45.2087227 27.2697819,46.8535826 29.2635514,48 C30.9084112,48.9470405 32.6031153,49.4953271 34.2479751,49.694704 C34.646729,49.7445483 35.1451713,49.7943925 35.5439252,49.7943925 C36.9395639,49.7943925 38.3352025,49.5451713 39.576324,48.9968847 C43.0654206,47.6012461 45.5077882,44.411215 46.0560748,40.7227414 C46.4548287,38.9781931 46.2554517,37.2336449 45.6074766,35.3894081 L45.6074766,35.3894081 Z M23.1327103,37.9813084 C20.4411215,34.5919003 18.6965732,31.4018692 18.0984424,28.7102804 C17.8492212,27.5638629 17.7993769,26.5669782 17.9489097,25.6697819 C18.0485981,24.8722741 18.3476636,24.1744548 18.7464174,23.576324 C19.6934579,22.2305296 21.2884735,21.3831776 23.1327103,21.3831776 C24.976947,21.3831776 26.6218069,22.1806854 27.5190031,23.576324 C27.917757,24.1744548 28.2168224,24.8722741 28.3165109,25.6697819 C28.4660436,26.5669782 28.4161994,27.6137072 28.1669782,28.7102804 C27.5688474,31.3520249 25.8242991,34.5420561 23.1327103,37.9813084 L23.1327103,37.9813084 Z M43.0155763,40.3239875 C42.6666667,42.9158879 40.9221184,45.1588785 38.4847352,46.1557632 C37.2884735,46.6542056 35.9925234,46.8037383 34.6965732,46.6542056 C33.4504673,46.5046729 32.2043614,46.105919 30.9084112,45.3582555 C29.1140187,44.3613707 27.3196262,42.8161994 25.2261682,40.5233645 C28.5158879,36.4859813 30.5096573,32.7975078 31.2573209,29.5077882 C31.6062305,27.9626168 31.6560748,26.5669782 31.5065421,25.271028 C31.3071651,24.0249221 30.858567,22.8785047 30.1607477,21.8816199 C28.6155763,19.6386293 26.023676,18.3426791 23.1327103,18.3426791 C20.2417445,18.3426791 17.6498442,19.6884735 16.1046729,21.8816199 C15.4068536,22.8785047 14.9582555,24.0249221 14.7588785,25.271028 C14.5595016,26.5669782 14.6093458,28.0124611 15.0080997,29.5077882 C15.7557632,32.7975078 17.7993769,36.5358255 21.0392523,40.5732087 C18.9956386,42.8660436 17.1514019,44.411215 15.3570093,45.4080997 C14.0610592,46.1557632 12.8149533,46.5545171 11.5688474,46.7040498 C10.223053,46.8535826 8.9271028,46.6542056 7.78068536,46.2056075 C5.33831776,45.2087227 3.59376947,42.9657321 3.24485981,40.3738318 C3.0953271,39.1277259 3.19501558,37.8816199 3.69345794,36.4859813 C3.84299065,35.9875389 4.09221184,35.4890966 4.34143302,34.8909657 C4.69034268,34.0934579 5.08909657,33.2461059 5.48785047,32.3987539 L5.5376947,32.2990654 C8.97694704,24.8722741 12.6654206,17.2959502 16.5034268,9.91900312 L16.6529595,9.61993769 C17.0517134,8.87227414 17.4504673,8.07476636 17.8492212,7.3271028 C18.2479751,6.52959502 18.6965732,5.78193146 19.2448598,5.13395639 C20.2915888,3.9376947 21.6872274,3.28971963 23.2323988,3.28971963 C24.7775701,3.28971963 26.1732087,3.9376947 27.2199377,5.13395639 C27.7682243,5.78193146 28.2168224,6.52959502 28.6155763,7.3271028 C29.0143302,8.07476636 29.4130841,8.87227414 29.811838,9.61993769 L29.9613707,9.91900312 C33.7495327,17.3457944 37.4380062,24.9221184 40.8722741,32.3489097 L40.8722741,32.3987539 C41.271028,33.1962617 41.6199377,34.0934579 42.0186916,34.8909657 C42.2679128,35.4890966 42.517134,35.9875389 42.6666667,36.4859813 C43.0654206,37.7819315 43.2149533,39.0280374 43.0155763,40.3239875 Z"></path>
            </g>
        </g>
    </g>
</svg>