<?xml version="1.0" encoding="UTF-8"?>
<svg width="200px" height="100px" viewBox="0 0 200 100" version="1.1" xmlns="http://www.w3.org/2000/svg" xmlns:xlink="http://www.w3.org/1999/xlink">
    <!-- Generator: Sketch 46.2 (44496) - http://www.bohemiancoding.com/sketch -->
    <title>apple</title>
    <desc>Created with Sketch.</desc>
    <defs></defs>
    <g id="Page-1" stroke="none" stroke-width="1" fill="none" fill-rule="evenodd">
        <g id="apple">
            <rect id="Rectangle" fill="#FFFFFF" opacity="0" x="0" y="0" width="200" height="100"></rect>
            <g transform="translate(78.000000, 23.000000)" id="Shape" fill-rule="nonzero" fill="#000000">
                <path d="M37.3307513,29.1641329 C37.4078921,37.4715255 44.6185286,40.2360163 44.6984127,40.2713015 C44.6374434,40.4662687 43.5462732,44.2109718 40.8995068,48.0789826 C38.6114937,51.423074 36.2368378,54.7549153 32.4960532,54.8239206 C28.8203581,54.8916486 27.638417,52.6442239 23.436057,52.6442239 C19.2349663,52.6442239 17.921776,54.7549097 14.4423212,54.8916486 C10.831515,55.0282875 8.08192403,51.2754567 5.77489662,47.9436156 C1.06076547,41.128222 -2.54180613,28.6849144 2.29553692,20.2854789 C4.69862575,16.1142851 8.99312712,13.472911 13.6544244,13.4051779 C17.2001438,13.3375429 20.5468815,15.7906196 22.7144247,15.7906196 C24.8805936,15.7906196 28.9475921,12.8405799 33.2230777,13.2738305 C35.012942,13.3483264 40.0371206,13.9968344 43.2632837,18.7190997 C43.0033345,18.8802486 37.2684103,22.2188485 37.3307513,29.1641408 M30.4227073,8.76485296 C32.3397086,6.44439922 33.6299609,3.21411303 33.2779662,0 C30.5147529,0.111056388 27.1734072,1.84132857 25.1914159,4.16050566 C23.415171,6.21424498 21.8595798,9.50138575 22.2793052,12.6518845 C25.3592308,12.8901742 28.5056118,11.0867824 30.4227073,8.76485673"></path>
            </g>
        </g>
    </g>
</svg>