<?xml version="1.0" encoding="UTF-8"?>
<svg width="200px" height="100px" viewBox="0 0 200 100" version="1.1" xmlns="http://www.w3.org/2000/svg" xmlns:xlink="http://www.w3.org/1999/xlink">
    <!-- Generator: Sketch 46.2 (44496) - http://www.bohemiancoding.com/sketch -->
    <title>dropbox</title>
    <desc>Created with Sketch.</desc>
    <defs></defs>
    <g id="Page-1" stroke="none" stroke-width="1" fill="none" fill-rule="evenodd">
        <g id="dropbox">
            <rect id="Rectangle" fill="#FFFFFF" opacity="0" x="0" y="0" width="200" height="100"></rect>
            <g transform="translate(20.000000, 28.000000)" id="Shape" fill-rule="nonzero" fill="#000000">
                <path d="M145.010526,15.4206316 L149.591579,24.1852632 L144.303158,33.3473684 L148.648421,33.3473684 L151.646316,27.9578947 L154.307368,33.3473684 L159.696842,33.3473684 L154.341053,23.3094737 L158.989474,15.4206316 L154.677895,15.4206316 L152.353684,19.5637895 L150.433684,15.4206316 L145.010526,15.4206316 Z M137.936842,18.5128421 C139.486316,18.5128421 140.025263,19.7490526 140.025263,24.3536842 C140.025263,29.1368421 139.385263,30.2147368 137.936842,30.2147368 C136.454737,30.2147368 135.814737,29.1031579 135.814737,24.3536842 C135.814737,19.968 136.32,18.5128421 137.903158,18.5128421 L137.936842,18.5128421 Z M137.936842,15.0265263 C132.581053,15.0265263 130.627368,18.7688421 130.627368,24.3536842 C130.627368,30.1136842 132.749474,33.7178947 137.903158,33.7178947 C143.157895,33.7178947 145.246316,30.08 145.246316,24.3536842 C145.246316,18.7688421 143.225263,15.0265263 137.936842,15.0265263 L137.936842,15.0265263 Z M119.814737,21.76 C119.814737,20.8370526 119.814737,19.9242105 120.421053,19.2370526 C120.757895,18.7621053 121.330526,18.4757895 122.004211,18.4757895 C123.452632,18.4757895 124.193684,19.6749474 124.193684,24.3873684 C124.193684,29.0021053 123.486316,30.2484211 121.903158,30.2484211 C119.814737,30.2484211 119.814737,27.9242105 119.814737,25.8694737 L119.814737,21.76 L119.814737,21.76 Z M114.896842,9.11494737 L114.896842,33.3473684 L117.861053,33.3473684 C118.231579,32.0673684 118.433684,31.6968421 118.804211,31.0231579 C119.242105,31.8989474 120.084211,33.7178947 122.913684,33.7178947 C123.890526,33.7178947 124.867368,33.5157895 125.844211,33.0105263 C129.111579,31.2926316 129.347368,25.9031579 129.347368,24.2526316 C129.347368,19.9242105 127.932632,15.1713684 123.587368,15.1713684 C121.397895,15.1713684 120.421053,16.3334737 119.814737,17.0947368 L119.814737,9.11494737 L114.896842,9.11494737 L114.896842,9.11494737 Z M103.915789,22.6021053 C103.915789,21.0122105 103.915789,18.4757895 106.206316,18.4757895 C108.092632,18.4757895 108.227368,20.9751579 108.227368,24.1515789 C108.227368,27.9242105 108.058947,30.1136842 106.004211,30.1136842 C103.915789,30.1136842 103.915789,28.5978947 103.915789,26.0378947 L103.915789,22.6021053 Z M98.9978947,15.4206316 L98.9978947,39.3768421 L103.915789,39.3768421 L103.915789,32.0336842 C104.488421,32.5726316 105.364211,33.5494737 107.351579,33.5494737 C113.077895,33.5494737 113.381053,26.6778947 113.381053,24.1515789 C113.381053,21.1267368 112.842105,18.3275789 111.056842,16.5456842 C110.181053,15.6766316 108.901053,15.1646316 107.688421,15.1646316 C105.229474,15.1646316 104.252632,16.9465263 103.646316,18.1086316 L103.646316,15.4206316 L98.9978947,15.4206316 Z M90.24,18.5128421 C91.7894737,18.5128421 92.3284211,19.7490526 92.3284211,24.3536842 C92.3284211,29.1368421 91.6884211,30.2147368 90.24,30.2147368 C88.7578947,30.2147368 88.1178947,29.1031579 88.1178947,24.3536842 C88.1178947,19.968 88.6231579,18.5128421 90.2063158,18.5128421 L90.24,18.5128421 Z M90.24,15.0265263 C84.9178947,15.0265263 82.9642105,18.7688421 82.9642105,24.3536842 C82.9642105,30.1136842 85.0526316,33.7178947 90.2063158,33.7178947 C95.4610526,33.7178947 97.5494737,30.08 97.5494737,24.3536842 C97.5494737,18.7688421 95.5621053,15.0265263 90.24,15.0265263 L90.24,15.0265263 Z M72.7578947,15.4206316 L72.7578947,33.3473684 L77.7431579,33.3473684 L77.7431579,25.6 C77.7431579,24.2189474 77.7431579,20.0690526 81.4147368,20.0690526 C81.6168421,20.0690526 81.8189474,20.0690526 82.2568421,20.1431579 L82.2568421,15.2757895 C82.0210526,15.2016842 81.7515789,15.1646316 81.3810526,15.1646316 C78.4842105,15.1646316 77.6084211,18.2197895 77.1705263,19.7456842 L77.1705263,15.4206316 L72.7578947,15.4206316 Z M59.2842105,13.2985263 L60.2273684,13.2985263 C62.3494737,13.2985263 65.28,13.5309474 65.28,20.9953684 C65.28,28.9010526 62.3157895,29.1705263 60.2273684,29.1705263 L59.2842105,29.1705263 L59.2842105,13.2985263 Z M53.9957895,33.3473684 L60.3621053,33.3473684 C62.2147368,33.3473684 64.8084211,33.3473684 66.9642105,31.6631579 C69.5578947,29.6757895 70.9052632,25.6 70.9052632,21.0694737 C70.9052632,9.15873684 63.3936842,9.11494737 59.7221053,9.11494737 L53.9957895,9.11494737 L53.9957895,33.3473684 Z M23.5789474,27.0147368 L13.9216842,35.0652632 L9.78526316,32.3705263 L9.78526316,35.3684211 L23.5789474,43.6547368 L37.3894737,35.3684211 L37.3894737,32.3705263 L33.2463158,35.0652632 L23.5789474,27.0147368 L23.5789474,27.0147368 Z M46.9557895,9.11494737 L33.2126316,0.0943157895 L23.5452632,8.18526316 L37.4568421,16.7410526 L46.9557895,9.11494737 L46.9557895,9.11494737 Z M23.5452632,25.2968421 L33.2126316,33.3473684 L46.9557895,24.3536842 L37.4568421,16.7242105 L23.5452632,25.2968421 L23.5452632,25.2968421 Z M0.161684211,24.3536842 L13.9216842,33.3473684 L23.5452632,25.2968421 L9.69094737,16.7242105 L0.161684211,24.3536842 L0.161684211,24.3536842 Z M13.9216842,0.0943157895 L0.161684211,9.06778947 L9.69094737,16.7141053 L23.5452632,8.13810526 L13.9216842,0.0943157895 Z"></path>
            </g>
        </g>
    </g>
</svg>