<?xml version="1.0" encoding="UTF-8"?>
<svg width="200px" height="100px" viewBox="0 0 200 100" version="1.1" xmlns="http://www.w3.org/2000/svg" xmlns:xlink="http://www.w3.org/1999/xlink">
    <!-- Generator: Sketch 46.2 (44496) - http://www.bohemiancoding.com/sketch -->
    <title>ebay</title>
    <desc>Created with Sketch.</desc>
    <defs></defs>
    <g id="Page-1" stroke="none" stroke-width="1" fill="none" fill-rule="evenodd">
        <g id="ebay">
            <rect id="Rectangle" fill="#FFFFFF" opacity="0" x="0" y="0" width="200" height="100"></rect>
            <g transform="translate(35.000000, 24.000000)" id="Shape" fill-rule="nonzero" fill="#000000">
                <path d="M16.8451495,11.38299 C7.71275748,11.38299 0.102358804,15.2570764 0.102358804,26.946711 C0.102358804,36.2073754 5.220299,42.038804 17.0809635,42.038804 C31.0419269,42.038804 31.9368106,32.8420598 31.9368106,32.8420598 L25.1724917,32.8420598 C25.1724917,32.8420598 23.7221927,37.7941528 16.668505,37.7941528 C10.9234551,37.7941528 6.79109635,33.9131561 6.79109635,28.473887 L32.6451163,28.473887 L32.6451163,25.0601993 C32.6451163,19.678804 29.2288372,11.38299 16.8451495,11.38299 Z M16.6093355,15.7451163 C22.0779734,15.7451163 25.8065116,19.0957475 25.8065116,24.1169435 L6.94139535,24.1169435 C6.94139535,18.7860797 11.8071096,15.7455482 16.6093355,15.7455482 L16.6093355,15.7451163 Z"></path>
                <path d="M32.6403654,0.0639202658 L32.6403654,36.1689369 C32.6403654,38.2182724 32.4935216,41.0959801 32.4935216,41.0959801 L38.9460133,41.0959801 C38.9460133,41.0959801 39.1775083,39.0293688 39.1775083,37.1398339 C39.1775083,37.1398339 42.3657475,42.128206 51.0338538,42.128206 C60.1619269,42.128206 66.3617608,35.7901661 66.3617608,26.7113289 C66.3617608,18.2647841 60.6668106,11.4719601 51.0485382,11.4719601 C42.0418272,11.4719601 39.2431561,16.3350831 39.2431561,16.3350831 L39.2431561,0.0647840532 L32.6403654,0.0647840532 L32.6403654,0.0639202658 Z M49.3827243,15.9368771 C55.5816944,15.9368771 59.523588,20.5374086 59.523588,26.710897 C59.523588,33.3309635 54.9714286,37.6615615 49.4272093,37.6615615 C42.8118937,37.6615615 39.2431561,32.496113 39.2431561,26.7700664 C39.2431561,21.4344518 42.4452159,15.9381728 49.3827243,15.9381728 L49.3827243,15.9368771 Z"></path>
                <path d="M82.3966777,11.38299 C68.6581395,11.38299 67.7770764,18.9065781 67.7770764,20.1081063 L74.6152492,20.1081063 C74.6152492,20.1081063 74.9737209,15.7157475 81.9254817,15.7157475 C86.4422259,15.7157475 89.9427243,17.7836545 89.9427243,21.758804 L89.9427243,23.1736877 L81.9259136,23.1736877 C71.2814618,23.1736877 65.6543189,26.2876412 65.6543189,32.6062458 C65.6543189,38.8246512 70.8534551,42.2081063 77.8799336,42.2081063 C87.4558804,42.2081063 90.5404651,36.9174086 90.5404651,36.9174086 C90.5404651,39.0207309 90.7024252,41.0955482 90.7024252,41.0955482 L96.7821927,41.0955482 C96.7821927,41.0955482 96.5463787,38.5249169 96.5463787,36.8802658 L96.5463787,22.6657807 C96.5472425,13.3446512 89.0288372,11.38299 82.3975415,11.38299 L82.3966777,11.38299 Z M89.943588,27.4192027 L89.943588,29.3048505 C89.943588,31.7653488 88.4250498,37.8822591 79.4865781,37.8822591 C74.5919269,37.8822591 72.4933555,35.4399003 72.4933555,32.6062458 C72.4933555,27.4515947 79.5604319,27.4192027 89.943588,27.4192027 Z"></path>
                <polygon points="92.8636213 12.5629236 100.556944 12.5629236 111.598306 34.6832226 122.614618 12.5629236 129.584086 12.5629236 109.518306 51.9447176 102.208073 51.9447176 107.998472 40.9659801 92.8640532 12.5629236"></polygon>
            </g>
        </g>
    </g>
</svg>