<?xml version="1.0" encoding="UTF-8"?>
<svg width="200px" height="100px" viewBox="0 0 200 100" version="1.1" xmlns="http://www.w3.org/2000/svg" xmlns:xlink="http://www.w3.org/1999/xlink">
    <!-- Generator: Sketch 46.2 (44496) - http://www.bohemiancoding.com/sketch -->
    <title>facebook</title>
    <desc>Created with Sketch.</desc>
    <defs></defs>
    <g id="Page-1" stroke="none" stroke-width="1" fill="none" fill-rule="evenodd">
        <g id="facebook">
            <rect id="Rectangle" fill="#FFFFFF" opacity="0" x="0" y="0" width="200" height="100"></rect>
            <g transform="translate(20.000000, 34.000000)" id="Shape" fill-rule="nonzero" fill="#000000">
                <path d="M131.935135,10.8648649 C129.740541,10.2810811 127.524324,10.2810811 125.340541,10.8648649 C122.064865,11.7405405 119.87027,13.8054054 119.167568,17.1027027 C118.778378,18.8972973 118.702703,20.8108108 118.810811,22.6594595 C119.037838,26.8756757 121.654054,29.8810811 125.697297,30.8216216 L125.87027,30.8216216 C126.021622,30.8216216 126.183784,30.9297297 126.335135,30.9297297 L126.497297,30.9297297 C126.691892,30.9297297 126.92973,31.0378378 127.178378,31.0378378 C127.967568,31.1459459 128.983784,31.1783784 129.827027,31.0378378 L129.956757,31.0378378 C134.140541,30.8216216 137.308108,28.1837838 138.237838,24.1405405 C138.745946,21.9243243 138.745946,19.6972973 138.237838,17.4702703 C137.459459,13.9783784 135.340541,11.7405405 131.87027,10.8108108 L131.935135,10.8648649 Z M132.205405,23.0594595 C132.205405,23.1891892 132.205405,23.3189189 132.097297,23.4486486 C131.675676,25.3081081 130.324324,26.3135135 128.518919,26.2378378 C126.583784,26.1297297 125.254054,25.0162162 125.059459,23.0810811 C124.92973,21.6648649 124.908108,20.227027 125.059459,18.8108108 C125.243243,16.572973 126.637838,15.3513514 128.735135,15.3945946 C130.454054,15.3945946 131.686486,16.4 132.118919,18.0648649 C132.52973,19.7189189 132.237838,22.6810811 132.227027,23.0594595 L132.205405,23.0594595 Z M140.616216,0.994594595 L140.616216,30.7459459 L146.92973,30.7459459 L146.92973,21.6432432 L152.745946,30.7567568 L159.437838,30.7567568 L153.124324,20.8540541 L159.437838,10.9945946 L152.745946,10.9945946 L146.92973,20.0864865 L146.92973,0.227027027 L140.616216,0.994594595 Z M73.4054054,21.5027027 C73.4054054,20.1189189 73.4054054,18.7351351 73.2,17.372973 C72.6594595,13.6540541 70.4,11.2972973 66.7351351,10.6810811 C65.3405405,10.4432432 63.8594595,10.4756757 62.4324324,10.572973 C58.5405405,10.9405405 55.5891892,13.3621622 54.9837838,17.0162162 C54.6162162,19.2324324 54.572973,21.5783784 54.8648649,23.7945946 C55.3081081,27.1351351 56.9405405,29.2648649 59.7513514,30.2918919 C61.0378378,30.6810811 67.3297297,32.3243243 72.8648649,29.5351351 L72.6378378,28.7243243 C72.3783784,27.6324324 72.0756757,26.5621622 71.7837838,25.4810811 L71.7837838,25.372973 C71.7837838,25.372973 71.6648649,25.372973 71.4594595,25.4810811 C71.2216216,25.5891892 70.972973,25.6216216 70.7351351,25.6972973 L70.6054054,25.6972973 C69.7621622,25.9351351 68.5621622,26.227027 67.2972973,26.3891892 C66.2378378,26.4972973 65.1567568,26.4972973 64.0756757,26.3891892 C62.3135135,26.0972973 60.972973,25.1567568 61.0378378,22.9297297 L73.4162162,22.9297297 L73.4162162,22.7135135 L73.4054054,21.5027027 Z M67.7297297,18.7891892 L60.9081081,18.7891892 C60.9081081,17.4378378 61.1135135,16.172973 62.3135135,15.4054054 C63.5891892,14.5945946 65.0054054,14.5621622 66.3243243,15.2864865 C67.6648649,16.0216216 67.7621622,17.3513514 67.7297297,18.7891892 L67.7297297,18.7891892 Z M53.9783784,29.3081081 C53.7081081,28.3135135 53.3945946,27.3189189 53.0918919,26.3675676 L52.8108108,25.3081081 C52.8108108,25.3081081 45.427027,28.8540541 44.2810811,22.1189189 C44.172973,21.0054054 44.172973,19.8594595 44.3891892,18.7675676 C44.6810811,16.7027027 45.9351351,15.5891892 47.9459459,15.4054054 C48.627027,15.2972973 49.3297297,15.4054054 50,15.5135135 C50.9189189,15.6648649 51.8054054,15.9459459 52.8108108,16.1945946 C53.1567568,15.1351351 53.5135135,14.0756757 53.8486486,13.0162162 C53.9567568,12.8540541 53.9567568,12.7027027 53.9783784,12.5837838 L54.1405405,11.9459459 C54.1405405,11.8378378 54,11.772973 53.8594595,11.6864865 C53.6864865,11.5459459 53.4054054,11.427027 52.9513514,11.2648649 C52.7675676,11.1567568 52.5945946,11.1351351 52.4108108,11.0810811 C52.2486486,10.972973 52.1405405,10.972973 52.1405405,10.972973 C50.2054054,10.4216216 48.2162162,10.3783784 46.1945946,10.5837838 C41.9351351,11.0378378 39.0378378,13.5459459 38.2378378,17.6972973 C37.8162162,19.8810811 37.8378378,22.0972973 38.3459459,24.2810811 C39.0702703,27.5567568 41.0594595,29.6864865 44.2918919,30.627027 C46.4,31.2432432 48.5621622,31.2756757 50.7135135,30.9405405 C51.6216216,30.8 52.9189189,30.3351351 53.8486486,30 L54.2054054,29.8702703 L54.0324324,29.3081081 L53.9783784,29.3081081 Z M30.1081081,13.3081081 C30,13.2 29.9567568,13.1459459 29.9027027,13.0810811 L29.7513514,12.9297297 C28.3351351,11.4810811 27.7945946,11.1243243 26.6810811,10.8 C22.4,9.53513514 18.227027,11.7837838 16.9081081,16.0864865 C16.0972973,18.7351351 16.0864865,21.4594595 16.5621622,24.1405405 C17.5891892,29.9459459 21.9027027,31.8918919 26.5081081,30.9297297 C27.9243243,30.6378378 28.972973,29.7513514 29.9459459,28.5297297 C29.9459459,28.5297297 30.0540541,28.4216216 30.1405405,28.2162162 L30.1405405,30.7675676 L36.0324324,30.7675676 L36.0324324,10.7783784 L30.1405405,10.7783784 L30.1405405,13.3081081 L30.1081081,13.3081081 Z M29.5891892,23.3513514 C29.3945946,25.2 27.9027027,26.3027027 26.1297297,26.2378378 C24.3243243,26.1297297 23.1243243,25.2 22.7351351,23.4594595 C22.2702703,20.9945946 22.8432432,18.0540541 22.8648649,17.8162162 C23.3405405,16.1621622 24.5405405,15.3405405 26.3135135,15.3837838 C28.0540541,15.3837838 29.3837838,16.4540541 29.5891892,18.2486486 C29.7621622,19.9351351 29.7621622,21.6756757 29.5891892,23.3513514 L29.5891892,23.3513514 Z M15.7081081,10.7675676 L11.2,10.7675676 L11.2,7.77297297 C11.5243243,4.94054054 16.2054054,5.48108108 16.2054054,5.48108108 L16.2054054,0.637837838 C16.0432432,0.637837838 6.90810811,-1.56756757 5.09189189,5.38378378 C4.81081081,6.24864865 4.82162162,10.2378378 4.83243243,10.7351351 L0.92972973,10.7351351 L0.92972973,16.0648649 L5.07027027,16.0648649 L5.07027027,30.5513514 L11.1027027,30.5513514 L11.1027027,16.0648649 L15.7189189,16.0648649 L16.2378378,10.7351351 L15.7189189,10.7351351 L15.7081081,10.7675676 Z M110.421622,10.8648649 C108.227027,10.2810811 106.010811,10.2810811 103.827027,10.8648649 C100.551351,11.7405405 98.3567568,13.8054054 97.6432432,17.1027027 C97.2540541,18.8972973 97.1783784,20.8108108 97.2864865,22.6594595 C97.5243243,26.8756757 100.12973,29.8810811 104.183784,30.8216216 L104.356757,30.8216216 C104.508108,30.8216216 104.67027,30.9297297 104.821622,30.9297297 L104.983784,30.9297297 C105.178378,30.9297297 105.416216,31.0378378 105.664865,31.0378378 C106.454054,31.1459459 107.47027,31.1783784 108.313514,31.0378378 L108.443243,31.0378378 C112.627027,30.8216216 115.794595,28.1837838 116.724324,24.1405405 C117.232432,21.9243243 117.232432,19.6972973 116.724324,17.4702703 C115.935135,13.9891892 113.827027,11.7405405 110.356757,10.8108108 L110.421622,10.8648649 Z M110.681081,23.0594595 C110.681081,23.1891892 110.681081,23.3189189 110.572973,23.4486486 C110.151351,25.3081081 108.8,26.3135135 106.994595,26.2378378 C105.059459,26.1297297 103.72973,25.0162162 103.535135,23.0810811 C103.399999,21.660865 103.399999,20.2310268 103.535135,18.8108108 C103.718919,16.572973 105.113514,15.3513514 107.210811,15.3945946 C108.92973,15.3945946 110.162162,16.4 110.594595,18.0648649 C111.016216,19.7189189 110.724324,22.6810811 110.702703,23.0594595 L110.681081,23.0594595 Z M88.0540541,10.4972973 C85.6756757,10.2378378 83.6108108,10.9621622 81.8702703,13.0594595 L81.8702703,0.205405405 L75.5567568,0.972972973 L75.5567568,30.7135135 L81.8702703,30.7135135 L81.8702703,28.9513514 C82.7243243,29.5567568 83.5459459,30.2918919 84.5189189,30.6378378 C88.1945946,31.9567568 93.0378378,30.8864865 94.7351351,25.9675676 C95.827027,22.8108108 95.7945946,19.5783784 94.972973,16.3891892 C94.0756757,12.8432432 91.7081081,10.8864865 88.0540541,10.4972973 Z M89.0054054,23.3837838 C88.7243243,25.3405405 87.1675676,26.3675676 85.3189189,26.227027 C84.8540541,26.227027 84.4324324,26.0972973 84.0648649,25.9459459 C82.572973,25.0918919 82.1189189,23.6540541 81.9891892,22.7459459 C81.8810811,21.3513514 81.772973,18.4324324 82.4540541,17.0594595 C83.027027,16 84.0432432,15.427027 85.372973,15.3837838 C87.2756757,15.2756757 88.7135135,16.2594595 88.9945946,18.1945946 C89.2324324,19.8918919 89.2432432,21.6864865 88.9945946,23.3837838 L89.0054054,23.3837838 Z"></path>
            </g>
        </g>
    </g>
</svg>