<?xml version="1.0" encoding="UTF-8"?>
<svg width="200px" height="100px" viewBox="0 0 200 100" version="1.1" xmlns="http://www.w3.org/2000/svg" xmlns:xlink="http://www.w3.org/1999/xlink">
    <!-- Generator: Sketch 46.2 (44496) - http://www.bohemiancoding.com/sketch -->
    <title>google</title>
    <desc>Created with Sketch.</desc>
    <defs></defs>
    <g id="Page-1" stroke="none" stroke-width="1" fill="none" fill-rule="evenodd">
        <g id="google">
            <rect id="Rectangle" fill="#FFFFFF" opacity="0" x="0" y="0" width="200" height="100"></rect>
            <g transform="translate(30.000000, 29.000000)" id="Shape" fill-rule="nonzero" fill="#000000">
                <path d="M17.9667866,35.4138817 C23.2356812,35.4138817 27.2060668,33.6899743 30.3141388,30.4508997 C33.5136247,27.2478149 34.5069409,22.7634961 34.5069409,19.1357326 C34.5069409,18.0092545 34.4205656,16.9763496 34.2478149,16.1089974 L17.9667866,16.1089974 L17.9667866,20.9460154 L29.5403599,20.9460154 C29.1948586,23.666838 28.2843188,25.6534704 26.908072,27.0354756 C25.220874,28.7161954 22.5893059,30.5768638 17.9667866,30.5768638 C10.8419023,30.5768638 5.2696144,24.8329049 5.2696144,17.7069409 C5.2696144,10.5809769 10.8419023,4.83341902 17.9667866,4.83341902 C21.8076093,4.83341902 24.6194859,6.34858612 26.6888946,8.29203085 L30.1017995,4.88020566 C27.2060668,2.11979434 23.3652442,0 17.9667866,0 C8.20457584,0 0,7.94293059 0,17.7069409 C0,27.4673522 8.20457584,35.4138817 17.9667866,35.4138817 Z M47.6827763,35.4138817 C53.9845758,35.4138817 59.1239075,30.5768638 59.1239075,24.0087404 C59.1239075,17.4046272 53.9845758,12.6107969 47.6827763,12.6107969 C41.3701799,12.6107969 36.2308483,17.4046272 36.2308483,24.0087404 C36.2308483,30.5768638 41.3701799,35.4138817 47.6827763,35.4138817 Z M47.6827763,30.922365 C44.2241645,30.922365 41.240617,28.0719794 41.240617,24.0087404 C41.240617,19.9095116 44.2241645,17.1059126 47.6827763,17.1059126 C51.1341902,17.1059126 54.1141388,19.9095116 54.1141388,24.0087404 C54.1141388,28.0719794 51.1341902,30.922365 47.6827763,30.922365 L47.6827763,30.922365 Z M72.6416452,35.4138817 C78.9470437,35.4138817 84.0863753,30.5768638 84.0863753,24.0087404 C84.0863753,17.4046272 78.9470437,12.6107969 72.6416452,12.6107969 C66.3326478,12.6107969 61.1933162,17.4046272 61.1933162,24.0087404 C61.1933162,30.5768638 66.3326478,35.4138817 72.6416452,35.4138817 Z M72.6416452,30.922365 C69.1866324,30.922365 66.2030848,28.0719794 66.2030848,24.0087404 C66.2030848,19.9095116 69.1866324,17.1059126 72.6416452,17.1059126 C76.0966581,17.1059126 79.0766067,19.9095116 79.0766067,24.0087404 C79.0766067,28.0719794 76.0966581,30.922365 72.6416452,30.922365 L72.6416452,30.922365 Z M97.1722365,45.6493573 C103.042159,45.6493573 108.015938,42.1979434 108.015938,33.7727506 L108.015938,13.3017995 L103.261697,13.3017995 L103.261697,15.1588689 L103.088946,15.1588689 C101.962468,13.8200514 99.8030848,12.6107969 97.0894602,12.6107969 C91.38509,12.6107969 86.162982,17.6205656 86.162982,24.055527 C86.162982,30.4508997 91.38509,35.4138817 97.0894602,35.4138817 C99.8030848,35.4138817 101.962468,34.2046272 103.088946,32.8226221 L103.261697,32.8226221 L103.261697,34.4637532 C103.261697,38.8293059 100.929563,41.1578406 97.1722365,41.1578406 C94.1095116,41.1578406 92.2056555,38.9588689 91.4246787,37.0946015 L87.0663239,38.9120823 C88.322365,41.9388175 91.6442159,45.6493573 97.1722365,45.6493573 L97.1722365,45.6493573 Z M97.5141388,30.922365 C94.0627249,30.922365 91.1655527,28.0323907 91.1655527,24.055527 C91.1655527,20.0390746 94.0627249,17.1059126 97.5141388,17.1059126 C100.929563,17.1059126 103.607198,20.0390746 103.607198,24.055527 C103.607198,28.0323907 100.929563,30.922365 97.5141388,30.922365 Z M116.477121,1.2092545 L111.467352,1.2092545 L111.467352,34.7228792 L116.477121,34.7228792 L116.477121,1.2092545 Z M130.210797,35.4138817 C135.432905,35.4138817 138.45964,32.2215938 139.712082,30.3609254 L135.821594,27.7732648 C134.529563,29.6663239 132.758869,30.922365 130.210797,30.922365 C127.662725,30.922365 125.845244,29.7562982 124.682776,27.4673522 L139.928021,21.1583548 L139.409769,19.8663239 C138.45964,17.3182519 135.562468,12.6107969 129.649357,12.6107969 C123.775835,12.6107969 118.89563,17.2354756 118.89563,24.0087404 C118.89563,30.4041131 123.732648,35.4138817 130.210797,35.4138817 L130.210797,35.4138817 Z M123.862211,23.666838 C123.732648,19.2652956 127.274036,17.0159383 129.822108,17.0159383 C131.80874,17.0159383 133.493059,18.0092545 134.058098,19.4344473 L123.862211,23.666838 Z"></path>
            </g>
        </g>
    </g>
</svg>