<?xml version="1.0" encoding="UTF-8"?>
<svg width="200px" height="100px" viewBox="0 0 200 100" version="1.1" xmlns="http://www.w3.org/2000/svg" xmlns:xlink="http://www.w3.org/1999/xlink">
    <!-- Generator: Sketch 46.2 (44496) - http://www.bohemiancoding.com/sketch -->
    <title>instagram</title>
    <desc>Created with Sketch.</desc>
    <defs></defs>
    <g id="Page-1" stroke="none" stroke-width="1" fill="none" fill-rule="evenodd">
        <g id="instagram">
            <rect id="Rectangle" fill="#FFFFFF" opacity="0" x="0" y="0" width="200" height="100"></rect>
            <g transform="translate(24.000000, 32.000000)" id="Shape" fill-rule="nonzero" fill="#000000">
                <path d="M8.47704697,0.281879195 C5.21261744,1.64939597 1.62389262,5.50791947 0.4904698,10.3546309 C-0.944966444,16.4939597 5.02845638,19.0904698 5.51838925,18.2402685 C6.09503356,17.24 4.44805369,16.901745 4.10899328,13.7162416 C3.67087247,9.60187919 5.58362416,5.00456375 7.99114094,2.98738255 C8.43838925,2.61261745 8.41718122,3.13422819 8.41718122,4.09906041 C8.41718122,5.82442953 8.32187919,21.3130201 8.32187919,24.5455033 C8.32187919,28.9194631 8.14120806,30.3006712 7.81664428,31.6655034 C7.48805369,33.0485906 6.95946309,33.9830872 7.35973153,34.3430872 C7.80724831,34.7457719 9.71785234,33.7879194 10.8238926,32.2442953 C12.1500671,30.3930201 12.6142282,28.1696644 12.6977181,25.7551678 C12.7983892,22.8445637 12.794094,18.2260403 12.7983892,15.5916778 C12.8021477,13.1755705 12.8389262,6.10067116 12.7559732,1.84751678 C12.7355705,0.804295303 9.84241609,-0.290201342 8.47704697,0.281879195"></path>
                <path d="M124.396778,20.7516778 C124.291544,23.0255033 123.788188,24.802953 123.16349,26.0566443 C121.954094,28.4837584 119.444564,29.2373154 118.37906,25.7484564 C117.798389,23.8467114 117.771275,20.6703356 118.188725,18.0163758 C118.613691,15.3127517 119.800268,13.2708725 121.765101,13.4550336 C123.703087,13.637047 124.610201,16.1342282 124.396778,20.7516778 L124.396778,20.7516778 Z M91.7251006,34.8595972 C91.6987919,38.6378525 91.1041609,41.9506041 89.8289934,42.9127516 C88.0204028,44.2770469 85.5895303,43.2536913 86.0928859,40.4966444 C86.538255,38.0569128 88.6445638,35.5653691 91.7302012,32.5210737 C91.7302012,32.5210737 91.7366444,33.2153019 91.7251006,34.8595972 L91.7251006,34.8595972 Z M91.2311409,20.729396 C91.1205369,22.8005369 90.5836241,24.8810738 89.9978525,26.0566443 C88.7887247,28.4837584 86.2609397,29.2424161 85.2134228,25.7484564 C84.4971813,23.3610738 84.6687247,20.2714094 85.0230872,18.3245638 C85.4829531,15.7986577 86.5975837,13.455302 88.5994631,13.455302 C90.5457719,13.455302 91.5055034,15.590604 91.2311409,20.729396 L91.2311409,20.729396 Z M72.3046981,20.6979866 C72.1860403,22.8912752 71.7581209,24.7248322 71.0714094,26.0566443 C69.8289934,28.4671141 67.3710066,29.2314094 66.28698,25.7484564 C65.5055034,23.2367785 65.7715438,19.812349 66.0966444,17.9624161 C66.5790603,15.2171812 67.7871141,13.2708725 69.67302,13.455302 C71.6102013,13.6445638 72.5519462,16.1342282 72.3046981,20.6979866 L72.3046981,20.6979866 Z M159.04,23.2598658 C158.566443,23.2598658 158.350336,23.7481879 158.171544,24.5696644 C157.551409,27.4268456 156.899597,28.0716778 156.05906,28.0716778 C155.12,28.0716778 154.276242,26.6571812 154.059329,23.8252349 C153.888859,21.5983892 153.916242,17.4990604 154.134228,13.4212081 C154.178792,12.5833557 153.947651,11.7543624 151.700403,10.9379866 C150.733423,10.5868456 149.327785,10.0697987 148.627919,11.7591946 C146.65047,16.5320805 145.876778,20.3213423 145.694765,21.8604027 C145.685369,21.9401342 145.587651,21.9565101 145.57047,21.7702013 C145.454497,20.5374497 145.195168,18.2969128 145.162953,13.5900671 C145.156778,12.6716778 144.962148,11.8899329 143.948456,11.2499329 C143.290738,10.8346309 141.293423,10.1001342 140.574228,10.9739597 C139.951141,11.6885906 139.22953,13.6118121 138.479732,15.8915436 C137.870336,17.7444295 137.445906,18.9978523 137.445906,18.9978523 C137.445906,18.9978523 137.45396,13.9983893 137.461208,12.1020134 C137.464429,11.3865772 136.973691,11.1481879 136.825772,11.1049664 C136.159732,10.9119463 134.847517,10.5889933 134.29047,10.5889933 C133.603222,10.5889933 133.434899,10.9728859 133.434899,11.5326174 C133.434899,11.6061745 133.326443,18.1148993 133.326443,22.6663087 C133.326443,22.8641611 133.326712,23.0797315 133.327517,23.3089933 C132.947383,25.4008054 131.714631,28.2405369 130.37396,28.2405369 C129.031678,28.2405369 128.398389,27.0534228 128.398389,21.6273826 C128.398389,18.4622819 128.493423,17.0856376 128.540134,14.7962416 C128.567248,13.4775839 128.619597,12.4649664 128.616644,12.2351678 C128.606712,11.5304698 127.388188,11.175302 126.821208,11.0440268 C126.251544,10.9119463 125.75651,10.8604027 125.369933,10.8824161 C124.822819,10.9135571 124.435705,11.2722148 124.435705,11.765906 C124.435705,12.0308725 124.438658,12.5339597 124.438658,12.5339597 C123.73396,11.4265772 122.600537,10.6558389 121.846443,10.4324832 C119.815302,9.82926175 117.695839,10.3640268 116.097181,12.6008054 C114.826577,14.378255 114.060671,16.3914094 113.759195,19.2837584 C113.538792,21.3983892 113.610738,23.5425503 114.002416,25.3559732 C113.529128,27.4021477 112.65047,28.2405369 111.688322,28.2405369 C110.291544,28.2405369 109.278926,25.9608054 109.39651,22.0177181 C109.474094,19.4244295 109.99302,17.6042953 110.560268,14.9712752 C110.802148,13.8488591 110.605638,13.2612081 110.112752,12.6979866 C109.660671,12.1814765 108.69745,11.9175839 107.312752,12.2421477 C106.326443,12.4735571 104.916242,12.7224161 103.62604,12.9135571 C103.62604,12.9135571 103.703893,12.602953 103.767785,12.055302 C104.103356,9.18335572 100.98255,9.41637584 99.9868456,10.3336913 C99.3924831,10.8813423 98.9879194,11.5272483 98.8343625,12.6885906 C98.5908725,14.5315436 100.09396,15.4008054 100.09396,15.4008054 C99.6008053,17.6585235 98.3919462,20.6072483 97.1438925,22.7393288 C96.4754363,23.8816108 95.9640269,24.7280537 95.3038925,25.6279195 C95.3014766,25.2928859 95.2995972,24.9575839 95.2985234,24.6241611 C95.28349,19.8781208 95.3465772,16.1430873 95.3744966,14.7965101 C95.4016106,13.4778523 95.4544966,12.4920805 95.4515437,12.2622819 C95.4440269,11.7471141 95.1430872,11.5522148 94.5170469,11.3057718 C93.96349,11.0877853 93.3089934,10.9369128 92.6300672,10.8842953 C91.7731544,10.8177181 91.2569128,11.2719463 91.2703356,11.809396 C91.27302,11.9108725 91.27302,12.5339597 91.27302,12.5339597 C90.5683222,11.4265772 89.4348994,10.6558389 88.6808053,10.4324832 C86.6496644,9.82953019 84.5302013,10.3640268 82.9315438,12.6008054 C81.6612081,14.378255 80.8292619,16.8724832 80.5935572,19.261745 C80.3739597,21.4885906 80.4144966,23.3806712 80.7138256,24.9750336 C80.3908725,26.5712752 79.4622819,28.2405369 78.4123491,28.2405369 C77.0700672,28.2405369 76.3063087,27.0534228 76.3063087,21.6273826 C76.3063087,18.4622819 76.4013422,17.0856376 76.4480538,14.7965101 C76.4751678,13.4778523 76.5275169,12.4649664 76.5245638,12.2354363 C76.5146309,11.5307383 75.2961075,11.1755705 74.7291275,11.0440268 C74.1358391,10.9068456 73.6236241,10.8563758 73.2303356,10.8856376 C72.7114094,10.9240268 72.3465772,11.3887248 72.3465772,11.735302 L72.3465772,12.5339597 C71.6418791,11.4265772 70.5084563,10.6558389 69.7543625,10.4324832 C67.7232216,9.82953019 65.6155706,10.3726174 64.0051006,12.6008054 C62.9548994,14.0536913 62.1046981,15.6644295 61.6671141,19.2300671 C61.5406713,20.2604027 61.4848322,21.2255033 61.4920806,22.1272483 C61.0732884,24.6885906 59.2236241,27.6402685 57.7106041,27.6402685 C56.825235,27.6402685 55.9820134,25.922953 55.9820134,22.2630872 C55.9820134,17.3879195 56.2837584,10.4469799 56.334765,9.77798656 C56.334765,9.77798656 58.2464428,9.74550334 58.6166444,9.74120806 C59.5702013,9.73073825 60.4338256,9.75328859 61.7038925,9.68832216 C62.3409397,9.65583894 62.9546309,7.36966444 62.2971813,7.08671141 C61.9991947,6.95865772 59.8931544,6.84644294 59.058255,6.82872484 C58.3562416,6.81288591 56.4018791,6.66818791 56.4018791,6.66818791 C56.4018791,6.66818791 56.5771813,2.0609396 56.6179866,1.57422819 C56.6526175,1.1685906 56.1277853,0.959731544 55.8268456,0.833020134 C55.0950334,0.523489934 54.4402684,0.375302013 53.6641609,0.215302013 C52.5919463,-0.00590604028 52.1055034,0.210469799 52.0104697,1.11543624 C51.8673825,2.48885906 51.7932884,6.51167784 51.7932884,6.51167784 C51.0064428,6.51167784 48.3186578,6.35785234 47.5315438,6.35785234 C46.8002684,6.35785234 46.0110066,9.50281878 47.0220134,9.5414765 C48.185235,9.58657719 50.2123491,9.62577181 51.5562416,9.66604028 C51.5562416,9.66604028 51.4963759,16.7216108 51.4963759,18.9001342 C51.4963759,19.1318121 51.4974497,19.3548993 51.4987919,19.5715436 C50.7591947,23.4263087 48.1540941,25.5087248 48.1540941,25.5087248 C48.7135572,22.9583892 47.5707381,21.0432215 45.5122147,19.4220134 C44.7538256,18.824698 43.2566444,17.6936913 41.5814766,16.4542282 C41.5814766,16.4542282 42.5516778,15.498255 43.4120806,13.5742282 C44.021745,12.2112752 44.0480538,10.6520805 42.5516778,10.3081879 C40.0791947,9.73959731 38.0405369,11.5554363 37.4324831,13.4939597 C36.9613422,14.9959732 37.2126175,16.1100671 38.1355706,17.267651 C38.2029531,17.3522148 38.2759731,17.4386577 38.3514094,17.5256376 C37.7932884,18.6013423 37.0265772,20.0496644 36.3771813,21.1728859 C34.574765,24.2912752 33.2131544,26.7578523 32.1841609,26.7578523 C31.3616106,26.7578523 31.3726175,24.2534228 31.3726175,21.9087248 C31.3726175,19.8875168 31.5218791,16.8485906 31.6410738,13.7022819 C31.6805369,12.661745 31.1602685,12.0689933 30.2880537,11.5320805 C29.7581208,11.205906 28.6271141,10.5645638 27.9720805,10.5645638 C26.9916778,10.5645638 24.162953,10.6979866 21.4902013,18.4292618 C21.1532886,19.4037584 20.4915436,21.1793288 20.4915436,21.1793288 L20.5487248,11.8821477 C20.5487248,11.6641611 20.4324832,11.4534228 20.1667114,11.3092618 C19.7162416,11.064698 18.5132886,10.5645638 17.4437584,10.5645638 C16.9342282,10.5645638 16.6797315,10.8016108 16.6797315,11.274094 L16.5865772,25.8195973 C16.5865772,26.9251007 16.615302,28.2142282 16.7245638,28.7779866 C16.8335571,29.3425503 17.0099329,29.8018792 17.2281879,30.0751678 C17.4464429,30.3479195 17.6987919,30.5559732 18.1146309,30.6418792 C18.501745,30.7216107 20.6220134,30.9938255 20.7320805,30.1836242 C20.8641611,29.2126174 20.8692618,28.1624161 21.9825503,24.2456376 C23.7157047,18.147651 25.9750336,15.172349 27.0375839,14.1157047 C27.2233557,13.9310067 27.4354363,13.92 27.4252349,14.2222819 C27.3798658,15.5591946 27.2204027,18.9001342 27.1130201,21.7379866 C26.8252349,29.3331544 28.2069799,30.7409396 30.1814765,30.7409396 C31.6920806,30.7409396 33.8214766,29.24 36.1041609,25.4405369 C37.5272484,23.0727517 38.9089934,20.7511409 39.901745,19.0778523 C40.5935572,19.7183893 41.3699328,20.4075168 42.1457719,21.1438926 C43.9487247,22.8550336 44.5406713,24.4810738 44.1479194,26.0236242 C43.8475169,27.202953 42.7162416,28.418255 40.7028188,27.237047 C40.1159731,26.892349 39.8655034,26.6260403 39.2754363,26.2375839 C38.9583894,26.0289933 38.4743625,25.9664429 38.1841609,26.1852349 C37.4303356,26.7535571 36.9991947,27.4765101 36.75302,28.3715436 C36.5135572,29.2424161 37.3857719,29.7028188 38.2899328,30.1055033 C39.0684563,30.4520805 40.741745,30.7661745 41.8088591,30.8018792 C45.9667116,30.9409396 49.2974497,28.7943624 51.6161075,23.2571812 C52.0311409,28.0394631 53.7975838,30.7452349 56.8665772,30.7452349 C58.9183894,30.7452349 60.9755706,28.0931544 61.8751678,25.4840268 C62.1334228,26.547651 62.5157047,27.4724832 63.0093959,28.2547651 C65.3742281,32.0016106 69.9618791,31.1951678 72.2663088,28.0134228 C72.9787919,27.0303356 73.0872484,26.677047 73.0872484,26.677047 C73.4233556,29.6813423 75.8426847,30.7310067 77.2279194,30.7310067 C78.7793288,30.7310067 80.3812081,29.9975839 81.5038925,27.4700671 C81.6354363,27.7444295 81.7790603,28.0064429 81.9358391,28.2547651 C84.3006713,32.0016106 88.8883222,31.1951678 91.1927516,28.0134228 C91.3014766,27.8641611 91.3957047,27.7288591 91.4781209,27.6072483 L91.5457719,29.5806712 C91.5457719,29.5806712 90.2311409,30.7865772 89.4241609,31.5264428 C85.8679194,34.7857719 83.1664428,37.2579866 82.9677853,40.1369128 C82.7148994,43.8077853 85.6902013,45.1720806 87.9446981,45.3508725 C90.3344966,45.5406713 92.3846981,44.2193288 93.6429531,42.3702013 C94.7503356,40.7425503 95.4751678,37.2394631 95.4220134,33.7795972 C95.4008053,32.3940941 95.3659059,30.6324832 95.3385234,28.7441611 C96.5868456,27.2944967 97.9932884,25.4620134 99.2883222,23.3175839 C100.699597,20.9804027 102.212081,17.8416108 102.986577,15.3989262 C102.986577,15.3989262 104.300671,15.4102013 105.703087,15.3183893 C106.151678,15.2891275 106.280537,15.3806712 106.197584,15.7095302 C106.09745,16.1068456 104.425772,22.5546309 105.951409,26.8499329 C106.995705,29.7903356 109.349799,30.7363758 110.745503,30.7363758 C112.379329,30.7363758 113.942282,29.5025503 114.779866,27.6703356 C114.880805,27.8746309 114.986309,28.0722147 115.101477,28.2547651 C117.466309,32.0016106 122.037852,31.1903356 124.358389,28.0134228 C124.882148,27.2966443 125.179329,26.677047 125.179329,26.677047 C125.677315,29.7863087 128.095302,30.7468456 129.480268,30.7468456 C130.922953,30.7468456 132.292081,30.1554362 133.402953,27.5269799 C133.449396,28.6842953 133.522416,29.630604 133.637853,29.9288591 C133.708188,30.1114094 134.118121,30.3404027 134.416376,30.4510067 C135.736108,30.9404027 137.082148,30.7089933 137.580134,30.6083222 C137.925101,30.5385235 138.194094,30.261745 138.230873,29.5471141 C138.327517,27.670604 138.268188,24.5178523 138.837047,22.1744967 C139.791946,18.2421477 140.682685,16.7167785 141.105235,15.9616108 C141.341745,15.5385235 141.608591,15.4687248 141.618255,15.9165101 C141.638121,16.8225503 141.683222,19.4832215 142.053154,23.0579866 C142.324832,25.6869799 142.687785,27.2410738 142.966712,27.7328859 C143.762685,29.1393288 144.745772,29.205906 145.546309,29.205906 C146.055571,29.205906 147.120537,29.0652349 147.025235,28.1702013 C146.978792,27.7339597 147.060134,25.0378523 148.001611,21.1637584 C148.616376,18.6338255 149.641342,16.3481879 150.011007,15.5122148 C150.147383,15.2040268 150.210738,15.4469799 150.208591,15.4942282 C150.130738,17.2365101 149.955973,22.935302 150.665772,26.0520805 C151.627919,30.2743624 154.411275,30.7468456 155.381208,30.7468456 C157.451812,30.7468456 159.145235,29.1718121 159.715705,25.0273826 C159.853154,24.0300671 159.649664,23.2598658 159.04,23.2598658 L159.04,23.2598658 Z"></path>
            </g>
        </g>
    </g>
</svg>