<?xml version="1.0" encoding="UTF-8"?>
<svg width="200px" height="100px" viewBox="0 0 200 100" version="1.1" xmlns="http://www.w3.org/2000/svg" xmlns:xlink="http://www.w3.org/1999/xlink">
    <!-- Generator: Sketch 46.2 (44496) - http://www.bohemiancoding.com/sketch -->
    <title>linkedin</title>
    <desc>Created with Sketch.</desc>
    <defs></defs>
    <g id="Page-1" stroke="none" stroke-width="1" fill="none" fill-rule="evenodd">
        <g id="linkedin">
            <rect id="Rectangle" fill="#FFFFFF" opacity="0" x="0" y="0" width="200" height="100"></rect>
            <g transform="translate(20.000000, 29.000000)" id="Shape" fill-rule="nonzero" fill="#000000">
                <path d="M105.024911,8.06718861 L105.024911,17.6444128 L104.939502,17.6444128 C104.022776,16.3046263 102.109609,15.4078292 99.5644128,15.4078292 C94.6846975,15.4078292 90.397153,19.3104626 90.4427046,25.9814947 C90.4427046,32.1594306 94.3145907,36.1833452 99.1487544,36.1833452 C101.779359,36.1833452 104.27331,35.042847 105.525979,32.8506762 L105.651246,32.8506762 L105.896085,35.7352313 L111.527402,35.7352313 C111.441993,34.3954448 111.362278,32.0757295 111.362278,29.800427 L111.362278,8.06661922 L105.024911,8.06661922 L105.024911,8.06718861 Z M105.024911,26.9164413 C105.024911,27.4038434 104.967972,27.8901068 104.899644,28.2943772 C104.523843,30.0441281 103.020641,31.2620641 101.192883,31.2620641 C98.5679715,31.2620641 96.8540925,29.147331 96.8540925,25.8152313 C96.8540925,22.6875445 98.3117438,20.1685409 101.23274,20.1685409 C103.191459,20.1685409 104.569395,21.5088968 104.939502,23.1749466 C105.024911,23.5404982 105.024911,23.9493238 105.024911,24.3154448 L105.024911,26.9175801 L105.024911,26.9164413 Z M89.1843416,27.7864769 C89.2640569,27.2985053 89.3893238,26.3572954 89.3893238,25.2948043 C89.3893238,20.3678292 86.8839858,15.3691103 80.3017794,15.3691103 C73.2640569,15.3691103 70.0071174,20.9377936 70.0071174,25.9923132 C70.0071174,32.2414235 73.9644128,36.1446263 80.8882562,36.1446263 C83.6384342,36.1446263 86.1779359,35.7346619 88.2676157,34.8817082 L87.430605,30.6966548 C85.716726,31.2671886 83.9686833,31.5496085 81.8049822,31.5496085 C78.8441281,31.5496085 76.2647687,30.3311032 76.0540925,27.7460498 L89.1843416,27.8029893 L89.1843416,27.7864769 Z M76.0142349,23.50121 C76.1736655,21.8727402 77.26121,19.476726 79.9715302,19.476726 C82.8469751,19.476726 83.5131673,22.0390036 83.5131673,23.50121 L76.0142349,23.50121 Z M57.9074733,8.06718861 L51.5683986,8.06718861 L51.5683986,35.7352313 L57.9074733,35.7352313 L57.9074733,29.5572954 L59.4903915,27.5644128 L64.4441281,35.7352313 L72.2391459,35.7352313 L63.9088968,23.904911 L71.197153,15.8559431 L63.5672598,15.8559431 C63.5672598,15.8559431 58.3629893,23.05879 57.9074733,23.910605 L57.9074733,8.06718861 L57.9074733,8.06718861 Z M29.6313167,35.7352313 L35.9629893,35.7352313 L35.9629893,25.095516 C35.9629893,24.5249822 36.0199288,23.9550178 36.1736655,23.5450534 C36.6280427,22.4108185 37.6740214,21.2321708 39.4232028,21.2321708 C41.7207117,21.2321708 42.6345907,22.9813523 42.6345907,25.5385053 L42.6345907,35.7363701 L48.9662633,35.7363701 L48.9662633,24.8074021 C48.9662633,18.9562989 45.8391459,16.2266192 41.670605,16.2266192 C38.2553737,16.2266192 36.7550178,18.1426335 35.9254093,19.4437011 L35.9823488,19.4437011 L35.9823488,16.6753025 L29.6427046,16.6753025 C29.7264057,18.4632028 29.6427046,35.7352313 29.6427046,35.7352313 L29.6313167,35.7352313 Z M26.6858363,35.7352313 L26.6858363,16.6753025 L20.3530249,16.6753025 L20.3530249,35.7352313 L26.6858363,35.7352313 Z M23.52,14.0737367 C25.7281139,14.0737367 27.1060498,12.6120996 27.1060498,10.7797865 C27.0491103,8.9144484 25.7281139,7.49153025 23.563274,7.49153025 C21.393879,7.49153025 19.9760854,8.91501779 19.9760854,10.7797865 C19.9760854,12.6120996 21.3540214,14.0737367 23.4807117,14.0737367 L23.5376512,14.0737367 L23.52,14.0737367 Z M0.32455516,35.7352313 L17.827758,35.7352313 L17.827758,29.9888968 L6.65793594,29.9888968 L6.65793594,8.06718861 L0.32455516,8.06718861 L0.32455516,35.7352313 Z M120.831317,0.378078292 C119.123132,0.378078292 117.733808,1.73437722 117.733808,3.406121 L117.733808,39.5655516 C117.733808,41.2372954 119.123132,42.5890391 120.831317,42.5890391 L156.572242,42.5890391 C158.286121,42.5890391 159.675445,41.2372954 159.675445,39.5655516 L159.675445,3.406121 C159.675445,1.73437722 158.286121,0.378078292 156.572242,0.378078292 L120.831317,0.378078292 Z M127.316726,7.46476868 C129.486121,7.46476868 130.807117,8.89224199 130.864057,10.7575801 C130.864057,12.5898932 129.486121,14.0515302 127.282562,14.0515302 L127.225623,14.0515302 C125.101779,14.0515302 123.729537,12.5898932 123.729537,10.7575801 C123.729537,8.89224199 125.141637,7.46419929 127.311032,7.46419929 L127.316726,7.46476868 Z M145.992883,16.2049822 C150.160854,16.2049822 153.286833,18.9283986 153.286833,24.7857651 L153.286833,35.7124555 L146.949466,35.7124555 L146.949466,25.5168683 C146.949466,22.953452 146.038434,21.2099644 143.743772,21.2099644 C141.99573,21.2099644 140.948043,22.3886121 140.492527,23.5234164 C140.33879,23.9333808 140.281851,24.5027758 140.281851,25.0676157 L140.281851,35.7124555 L133.96726,35.7124555 C133.96726,35.7124555 134.052669,18.4415658 133.96726,16.6530961 L140.298932,16.6530961 L140.298932,19.338363 C141.141637,18.0372954 142.64484,16.2049822 145.992883,16.2049822 Z M124.111032,16.6530961 L130.442705,16.6530961 L130.442705,35.7124555 L124.111032,35.7124555 L124.111032,16.6536655 L124.111032,16.6530961 Z"></path>
            </g>
        </g>
    </g>
</svg>