<?xml version="1.0" encoding="UTF-8"?>
<svg width="200px" height="100px" viewBox="0 0 200 100" version="1.1" xmlns="http://www.w3.org/2000/svg" xmlns:xlink="http://www.w3.org/1999/xlink">
    <!-- Generator: Sketch 46.2 (44496) - http://www.bohemiancoding.com/sketch -->
    <title>lyft</title>
    <desc>Created with Sketch.</desc>
    <defs></defs>
    <g id="Page-1" stroke="none" stroke-width="1" fill="none" fill-rule="evenodd">
        <g id="lyft">
            <rect id="Rectangle" fill="#FFFFFF" opacity="0" x="0" y="0" width="200" height="100"></rect>
            <g id="logo-lyft" transform="translate(61.000000, 22.000000)" fill-rule="nonzero" fill="#191919">
                <path d="M0,1.10891089 L11.8180339,1.10891089 L11.8180339,33.1454955 C11.8180339,38.2154198 14.1140192,41.2354539 15.9295775,42.5300378 C14.0074761,44.255885 8.13384244,45.7661006 3.7553513,42.0983775 C1.17394043,39.9365017 0,36.3815583 0,33.0374811 L0,1.10891089 L0,1.10891089 Z M74.033704,27.8100286 L74.033704,24.4156028 L77.6379266,24.4156028 L77.6379266,12.5070858 L73.6798864,12.5070858 C72.1604361,5.35749137 65.9104437,0 58.435849,0 C49.8251066,0 42.8450704,7.10915602 42.8450704,15.8782896 L42.8450704,43.6883182 C45.2982062,44.0394519 48.2207401,43.6446767 50.707292,41.544681 C53.2881952,39.3646092 54.4620836,35.7808035 54.4620836,32.4091993 L54.4620836,31.3846257 L60.3641553,31.3846257 L60.3641553,19.4761087 L54.4620836,19.4761087 L54.4620836,15.8782896 L54.4762363,15.8782896 C54.4762363,13.6513733 56.2488628,11.8460576 58.435849,11.8460576 C60.6224422,11.8460576 62.402145,13.6513733 62.402145,15.8782896 L62.402145,27.8100286 C62.402145,36.5791622 69.3896507,43.6883182 78,43.6883182 L78,31.8422606 C75.8134069,31.8422606 74.033704,30.0369449 74.033704,27.8100286 L74.033704,27.8100286 Z M28.9905037,12.7524752 L28.9905037,30.0929047 C28.9905037,31.0772942 28.1846811,31.8753726 27.1903368,31.8753726 C26.1959925,31.8753726 25.3901699,31.0772942 25.3901699,30.0929047 L25.3901699,12.7524752 L13.7323944,12.7524752 L13.7323944,33.1465777 C13.7323944,36.8151962 14.9599412,41.4550949 20.54622,42.9658427 C26.1383778,44.4781795 29.3824407,41.3474397 29.3824407,41.3474397 C29.0869202,43.40997 27.170348,44.9207178 24.0830599,45.2444778 C21.7471151,45.4891848 18.7597709,44.7050102 17.2696262,44.0574901 L17.2696262,54.8623362 C21.0667124,55.9972841 25.0828913,56.3639473 29.013236,55.5908957 C36.1460984,54.1882003 40.6478873,48.1456063 40.6478873,40.1064257 L40.6478873,12.7524752 L28.9905037,12.7524752 L28.9905037,12.7524752 Z" id="logo_standard"></path>
            </g>
        </g>
    </g>
</svg>