<?xml version="1.0" encoding="UTF-8"?>
<svg width="200px" height="100px" viewBox="0 0 200 100" version="1.1" xmlns="http://www.w3.org/2000/svg" xmlns:xlink="http://www.w3.org/1999/xlink">
    <!-- Generator: Sketch 46.2 (44496) - http://www.bohemiancoding.com/sketch -->
    <title>mailchimp</title>
    <desc>Created with Sketch.</desc>
    <defs></defs>
    <g id="Page-1" stroke="none" stroke-width="1" fill="none" fill-rule="evenodd">
        <g id="mailchimp">
            <rect id="Rectangle" fill="#FFFFFF" opacity="0" x="0" y="0" width="200" height="100"></rect>
            <g transform="translate(20.000000, 34.000000)" id="Shape" fill-rule="nonzero" fill="#000000">
                <path d="M158.622711,27.956044 L158.446886,27.956044 L158.446886,27.5164835 L158.710623,27.5164835 C158.857143,27.5164835 159.032967,27.5457875 159.032967,27.7216117 C159.032967,27.956044 158.827839,27.956044 158.622711,27.956044 Z M159.179487,27.7216117 C159.179487,27.4871795 159.062271,27.3699634 158.798535,27.3699634 L158.271062,27.3699634 L158.271062,28.6593407 L158.446886,28.6593407 L158.446886,28.0732601 L158.681319,28.0732601 L159.062271,28.6593407 L159.208791,28.6593407 L158.857143,28.0732601 C159.032967,28.0732601 159.179487,27.956044 159.179487,27.7216117 L159.179487,27.7216117 Z M158.681319,28.952381 C158.153846,28.952381 157.74359,28.5421245 157.74359,28.014652 C157.74359,27.4871795 158.153846,27.047619 158.681319,27.047619 C159.208791,27.047619 159.619048,27.4871795 159.619048,28.014652 C159.619048,28.5421245 159.208791,28.952381 158.681319,28.952381 Z M158.681319,26.9010989 C158.095238,26.9010989 157.567766,27.3992674 157.567766,28.014652 C157.567766,28.6007326 158.095238,29.1282051 158.681319,29.1282051 C159.296703,29.1282051 159.765568,28.6007326 159.765568,28.014652 C159.765568,27.3992674 159.296703,26.9010989 158.681319,26.9010989 L158.681319,26.9010989 Z M114.813187,10.1684982 C113.904762,10.1684982 113.172161,10.8717949 113.172161,11.7216117 C113.172161,12.6300366 113.875458,13.3333333 114.754579,13.3333333 L114.754579,13.4505495 L114.754579,13.3333333 C115.663004,13.3333333 116.3663,12.6300366 116.395604,11.7802198 C116.395604,10.8717949 115.663004,10.1684982 114.813187,10.1684982 L114.813187,10.1684982 Z M58.4322344,10.1684982 C57.5238095,10.1684982 56.7912088,10.8717949 56.7912088,11.7216117 C56.7912088,12.6300366 57.4945055,13.3333333 58.4029304,13.3333333 L58.4029304,13.4505495 L58.4029304,13.3333333 C59.2820513,13.3333333 59.985348,12.6300366 60.043956,11.7802198 C60.043956,10.8717949 59.2820513,10.1684982 58.4322344,10.1684982 L58.4322344,10.1684982 Z M47.1501832,20.5128205 C46.4468864,23.3846154 45.1282051,26.7838828 42.6959707,26.959707 L42.4908425,26.959707 C41.4945055,26.959707 40.9084249,26.3150183 40.8205128,25.025641 C40.6739927,23.3846154 41.3772894,21.4505495 42.5787546,20.1318681 C43.3699634,19.3113553 44.2490842,18.8424908 45.040293,18.8424908 L45.0695971,18.8424908 C46.0952381,18.8424908 46.8278388,19.6630037 47.1501832,20.4542125 L47.1794872,20.4835165 L47.1501832,20.5128205 L47.1501832,20.5128205 Z M69.4212454,4.74725275 L69.4505495,4.68864469 C69.6849817,4.68864469 69.8901099,4.80586081 70.0659341,5.04029304 C70.8571429,6.15384615 70.8571429,10.0805861 69.4798535,14.5347985 C68.7179487,17.1135531 67.6630037,19.5164835 66.4322344,21.5384615 L66.2564103,21.8608059 L66.1978022,21.5091575 C66.0512821,20.3956044 66.021978,19.2820513 65.9340659,18.2857143 C65.5824176,11.5457875 67.6630037,4.80586081 69.4212454,4.74725275 L69.4212454,4.74725275 Z M50.9304029,28.1904762 C53.2747253,27.985348 55.1501832,24.7912088 55.8241758,23.4432234 L56,23.0915751 L56.0879121,23.4432234 C56.4102564,25.4065934 57.4652015,28.6007326 60.6886447,28.6593407 L60.7472527,28.6593407 C62.1538462,28.6593407 63.7362637,27.7802198 65.3772894,26.1391941 L65.4945055,26.021978 L65.5824176,26.1391941 C66.6666667,27.985348 68.1318681,28.952381 69.6849817,28.8937729 C72,28.7765568 73.3479853,27.1355311 73.4652015,25.992674 C73.5238095,25.7289377 73.4358974,25.4358974 73.2893773,25.2600733 C73.0842491,25.0549451 72.7619048,25.025641 72.5860806,25.2014652 L72.4688645,25.3186813 C71.9120879,25.8461538 70.9450549,26.7838828 69.8315018,26.8424908 C68.5128205,26.9010989 67.5457875,26.1098901 66.9010989,24.4688645 L66.8717949,24.3809524 L66.9010989,24.3516484 C70.5934066,19.5750916 73.1135531,12.3076923 72.8791209,7.44322344 C72.7619048,5.15750916 72.1172161,2.46153846 69.6556777,2.46153846 L69.4505495,2.46153846 C68.5128205,2.52014652 67.6630037,2.98901099 66.9010989,3.80952381 C64.6153846,6.38827839 63.3846154,12.6593407 63.8241758,19.8681319 C63.9413919,21.3919414 64.1758242,22.7399267 64.6153846,24.029304 L64.6446886,24.0879121 L64.6153846,24.1465201 C63.2380952,25.7289377 61.9194139,26.6080586 60.8058608,26.6080586 C58.2271062,26.6080586 58.3443223,22.2710623 58.5494505,18.6959707 C58.5787546,17.9340659 58.6666667,17.4358974 58.4322344,17.1721612 C58.2857143,16.967033 57.992674,16.8498168 57.5824176,16.8498168 L57.5238095,16.8498168 C56.6446886,16.8498168 56.4395604,17.0549451 55.970696,18.4029304 C55.003663,21.2161172 53.0695971,25.992674 51.1355311,25.992674 C50.5787546,25.96337 50.1978022,25.7875458 49.8754579,25.4358974 C48.9377289,24.2344322 49.6703297,21.2161172 50.2271062,18.8424908 C50.3443223,18.4029304 50.4615385,17.992674 50.5494505,17.5824176 C50.6666667,17.0549451 50.6080586,16.6153846 50.4322344,16.3516484 C50.2271062,16.1172161 49.7875458,16 49.2893773,16.029304 C48.4395604,16.1172161 47.9413919,16.4688645 47.6483516,18.021978 L47.6190476,18.3736264 L47.4139194,18.1391941 C47.0622711,17.5824176 46.3589744,16.967033 45.040293,16.967033 L44.6886447,16.967033 C43.2820513,17.0842491 41.6703297,18.0512821 40.4981685,19.5164835 C39.1501832,21.2161172 38.5054945,23.3846154 38.6813187,25.6117216 C38.7106227,25.6703297 38.7106227,25.7875458 38.7399267,25.9047619 L38.7399267,25.992674 L38.7106227,26.021978 C37.8901099,26.9304029 37.0695971,27.3699634 36.2490842,27.3699634 C34.959707,27.3699634 34.2271062,26.4322344 34.2271062,24.8498168 C34.2271062,22.2124542 36.014652,14.2417582 36.014652,11.3406593 C36.014652,8.26373626 34.6373626,6.56410256 32.2637363,6.56410256 L32.2344322,6.56410256 C28.7765568,6.56410256 26.0512821,10.5201465 23.4725275,18.6080586 C23.2380952,19.3406593 22.9450549,20.2197802 22.7692308,20.952381 L22.3589744,22.1538462 L22.4761905,20.9230769 C22.7106227,18.1098901 22.8864469,15.3260073 23.003663,12.7472527 C23.1208791,8.79120879 22.5641026,6.3003663 21.3626374,5.01098901 C20.6886447,4.33699634 19.8388278,3.98534799 18.6959707,3.98534799 L18.6666667,3.98534799 C14.4468864,3.98534799 12.3663004,11.1941392 10.9010989,16.2344322 C10.4615385,17.7582418 9.55311355,21.1868132 8.96703297,23.5311355 L9.31868132,22.974359 C9.61172161,20.014652 10.3443223,12.6007326 10.3150183,8.55677656 C10.2564103,4.21978022 8.82051282,2.31501832 5.65567766,2.28571429 L5.62637363,2.28571429 C3.8974359,2.28571429 2.72527473,3.13553114 2.05128205,3.83882784 C0.937728938,4.98168498 0.263736264,6.62271062 0.293040293,8.05860806 C0.322344322,8.90842491 0.84981685,9.6996337 1.26007326,9.6996337 C1.52380952,9.6996337 1.67032967,9.34798535 1.72893773,9.14285714 C2.6959707,5.86080586 3.98534799,4.30769231 5.62637363,4.30769231 C6.27106227,4.30769231 6.7985348,4.51282051 7.17948718,4.92307692 C8.43956044,6.3003663 8.20512821,9.96336996 7.79487179,16.7032967 C7.64835165,18.8424908 7.5018315,21.3040293 7.38461538,24.0879121 C7.32600733,24.5567766 7.32600733,25.025641 7.2967033,25.4358974 C7.17948718,27.3992674 7.06227106,28.9230769 7.79487179,29.040293 C8.73260073,29.1575092 9.37728938,28.7765568 9.67032967,27.8388278 C10.1391941,26.4322344 11.1941392,22.5934066 13.2747253,15.5897436 C15.2380952,8.87912088 16.7032967,6.44688645 18.5787546,6.44688645 C20.8058608,6.44688645 20.952381,10.1978022 20.5421245,18.1391941 C20.4542125,19.8681319 20.3369963,21.7435897 20.2490842,23.7948718 C20.2490842,24.1172161 20.2197802,24.3809524 20.2197802,24.6739927 C20.1611722,26.3736264 20.0732601,27.7509158 20.5714286,28.2490842 C20.7179487,28.4249084 20.9230769,28.4835165 21.1868132,28.4835165 C22.1245421,28.4835165 22.4468864,27.6630037 22.9157509,26.3150183 C23.003663,26.021978 23.0622711,25.7875458 23.1794872,25.5238095 C26.4322344,16.5274725 28.8644689,8.76190476 32.0586081,8.76190476 C33.0549451,8.76190476 33.7875458,9.55311355 33.7875458,11.0769231 C33.7875458,14.6227106 32.0586081,21.4505495 32.0586081,24.9377289 C32.0586081,26.1978022 32.4102564,27.2820513 33.0842491,28.0732601 C33.7875458,28.8937729 34.7545788,29.3040293 35.8974359,29.3040293 L35.9267399,29.3040293 C37.040293,29.3040293 38.1245421,28.8058608 39.2967033,27.7509158 L39.3846154,27.6630037 L39.5018315,27.7802198 C40.2344322,28.7765568 41.4358974,29.3040293 42.7252747,29.2454212 C44.7765568,29.0695971 46.4468864,27.2820513 47.0622711,25.6117216 L47.1794872,25.2600733 L47.2967033,25.6117216 C47.7655678,26.8424908 48.7912088,28.3369963 50.9304029,28.1904762 L50.9304029,28.1904762 Z M147.897436,24.6153846 L147.897436,24.5860806 L147.809524,24.4395604 L147.838828,24.3809524 C149.362637,21.2747253 151.091575,19.4578755 152.615385,19.4578755 L152.644689,19.4578755 C154.373626,19.4578755 155.545788,21.040293 155.516484,23.2087912 C155.516484,24.6739927 154.871795,25.5238095 154.344322,25.96337 C153.699634,26.4615385 152.879121,26.7838828 152.058608,26.7838828 C150.065934,26.7838828 148.717949,25.6117216 147.897436,24.6153846 Z M147.487179,36.4542125 C147.223443,36.8058608 146.901099,36.952381 146.490842,36.952381 C145.96337,36.952381 145.611722,36.7472527 145.347985,36.4542125 C144.644689,35.5164835 144.849817,33.2893773 146.021978,29.3040293 C146.139194,28.8351648 146.285714,28.3369963 146.432234,27.8681319 L146.549451,27.4871795 L146.666667,27.8681319 C148.043956,32.4981685 148.278388,35.3992674 147.487179,36.4542125 Z M98.4615385,15.2087912 C98.5201465,14.1831502 98.5787546,13.2161172 98.6959707,12.3076923 C99.4871795,6.41758242 101.098901,2.28571429 102.652015,2.28571429 C103.384615,2.28571429 103.736264,2.81318681 103.736264,3.92673993 C103.70696,6.56410256 102.03663,10.4029304 98.6959707,15.2967033 L98.4322344,15.6776557 L98.4615385,15.2087912 L98.4615385,15.2087912 Z M152.263736,28.6886447 L152.29304,28.6886447 C155.545788,28.6886447 157.802198,26.4615385 157.860806,23.2673993 C157.860806,21.6556777 157.391941,20.2197802 156.571429,19.1941392 C155.663004,18.0512821 154.40293,17.4652015 152.937729,17.4652015 L152.879121,17.4652015 C150.945055,17.4652015 149.069597,18.959707 147.252747,22.0952381 L147.106227,22.3296703 L147.018315,22.03663 C146.549451,20.7179487 146.168498,19.6336996 145.934066,18.959707 C145.728938,18.4908425 145.699634,18.2857143 145.67033,18.2271062 C145.582418,17.8754579 145.318681,17.6703297 144.908425,17.6703297 C144.673993,17.6703297 144.43956,17.7582418 144.205128,17.9047619 C143.970696,18.021978 143.85348,18.2271062 143.794872,18.4615385 L143.794872,18.4908425 C141.978022,24.1172161 140.512821,26.9010989 139.223443,26.9010989 C139.047619,26.9010989 138.901099,26.8131868 138.783883,26.6959707 C138.461538,26.3443223 138.549451,25.4358974 138.666667,24.2344322 C138.754579,23.3846154 138.813187,22.3589744 138.783883,21.3040293 C138.695971,19.2820513 137.611722,18.021978 135.824176,18.021978 C133.509158,18.021978 132.014652,20.4542125 131.369963,21.8901099 L131.164835,22.3296703 L131.135531,21.8608059 C130.930403,20.043956 130.344322,17.9047619 128.43956,17.9047619 C126.212454,17.9047619 124.542125,20.5128205 123.516484,22.7106227 L123.252747,23.2967033 L123.252747,22.6227106 C123.369963,19.6923077 123.487179,17.992674 123.545788,17.5238095 C123.6337,17.0549451 123.604396,16.7326007 123.428571,16.5274725 C123.282051,16.3809524 123.018315,16.2930403 122.578755,16.3516484 C121.875458,16.3809524 121.52381,16.8205128 120.967033,18.2564103 C120.087912,20.6300366 117.802198,26.1391941 115.985348,26.1391941 C115.6337,26.1391941 115.311355,26.021978 115.106227,25.7875458 C114.344322,24.9377289 114.637363,22.5641026 115.076923,19.2820513 L115.106227,19.047619 C115.311355,17.4652015 114.959707,17.1135531 114.139194,16.996337 C114.021978,16.967033 113.934066,16.967033 113.875458,16.967033 C113.201465,16.967033 112.879121,17.5824176 112.263736,19.3992674 C111.120879,22.5934066 109.684982,25.96337 108.014652,25.96337 C107.956044,25.96337 107.897436,25.96337 107.809524,25.9047619 C106.959707,25.7875458 106.959707,24.4688645 106.989011,22.7985348 C106.989011,21.8901099 106.989011,20.8351648 106.871795,19.8974359 C106.608059,18.2564103 105.611722,17.2014652 104.29304,17.2014652 C101.626374,17.2014652 99.8681319,20.6007326 99.018315,22.6227106 L98.8717949,23.0622711 L98.7838828,22.5934066 C98.6666667,21.6849817 98.5201465,20.3369963 98.4615385,18.6959707 L98.4615385,18.5787546 C103.443223,12.3663004 105.67033,7.82417582 105.699634,3.95604396 C105.728938,1.49450549 104.615385,-7.10542736e-15 102.652015,-7.10542736e-15 C101.245421,-7.10542736e-15 97.9340659,1.17216117 96.7619048,12.043956 C96.5274725,14.0659341 96.4102564,16.1172161 96.4102564,18.1684982 L96.4102564,18.2271062 L96.3516484,18.2564103 C94.0952381,21.5384615 89.2600733,27.1941392 84.5421245,27.1941392 C80.2344322,27.1941392 76.8351648,23.7362637 76.8351648,17.5824176 C76.8351648,9.37728938 82.6080586,4.33699634 87.003663,4.33699634 L87.032967,4.33699634 C87.970696,4.3956044 88.7912088,4.63003663 89.3772894,5.12820513 C89.992674,5.62637363 90.3150183,6.38827839 90.3150183,7.20879121 C90.3150183,8.32234432 89.9047619,8.90842491 89.5531136,9.49450549 C89.4945055,9.61172161 89.4065934,9.78754579 89.2893773,9.93406593 C89.2014652,10.0805861 89.1428571,10.3150183 89.2600733,10.4908425 C89.3772894,10.6666667 89.6703297,10.8424908 90.021978,10.8424908 C91.047619,10.8424908 92.6593407,9.31868132 92.6593407,7.03296703 C92.6886447,4.65934066 90.6666667,2.22710623 87.1208791,2.22710623 C81.7289377,2.22710623 74.4615385,8.17582418 74.4615385,17.7875458 C74.4615385,24.5860806 78.7106227,29.2747253 84.4835165,29.2747253 C88.5860806,29.2747253 92.6007326,26.3443223 96.2051282,21.4212454 L96.4395604,21.1575092 L96.4395604,21.5091575 C96.5274725,23.2967033 96.6739927,24.7032967 96.7619048,25.7582418 C96.8205128,26.4322344 96.8791209,26.9010989 96.8791209,27.1648352 C96.8791209,27.7509158 96.9377289,28.1318681 97.1428571,28.3663004 C97.3479853,28.6593407 97.6410256,28.7765568 98.1684982,28.7765568 C98.9304029,28.7765568 99.1062271,28.2197802 99.4578755,26.8424908 L99.5164835,26.4615385 C99.9267399,24.8205128 101.391941,19.4578755 103.589744,19.4578755 C103.941392,19.4578755 104.205128,19.5457875 104.410256,19.7802198 C104.908425,20.2783883 104.879121,21.3333333 104.791209,22.5934066 C104.761905,23.3260073 104.732601,24.1172161 104.791209,24.9084249 C104.996337,26.959707 105.904762,27.985348 107.545788,28.014652 C109.216117,28.014652 110.974359,26.1978022 111.912088,24.4981685 L112.117216,24.2051282 L112.14652,24.5567766 C112.351648,25.4358974 113.084249,28.4249084 115.516484,28.4249084 C117.655678,28.4249084 119.531136,26.1098901 121.553114,21.4212454 L121.846154,20.8058608 L121.846154,21.4505495 C121.787546,23.2673993 121.67033,25.4358974 121.67033,27.1355311 C121.67033,28.4249084 121.787546,28.9230769 122.432234,28.9230769 L122.549451,28.9230769 C123.135531,28.9230769 123.516484,28.5714286 123.721612,27.8974359 C125.274725,22.5641026 126.593407,20.043956 127.882784,20.043956 C129.172161,20.043956 129.289377,22.3882784 129.406593,26.5787546 L129.406593,26.9010989 C129.435897,28.3369963 129.494505,28.952381 130.432234,29.010989 C131.076923,29.010989 131.252747,28.4542125 131.6337,27.1355311 C131.663004,26.8424908 131.750916,26.5787546 131.838828,26.2564103 C133.069597,21.978022 134.124542,20.2197802 135.384615,20.2197802 C136.468864,20.2197802 136.556777,21.3333333 136.556777,21.7435897 C136.644689,22.5054945 136.527473,23.3846154 136.43956,24.1465201 C136.410256,24.9084249 136.322344,25.6703297 136.322344,26.4322344 C136.410256,28.1025641 137.347985,29.040293 138.930403,29.040293 C141.010989,29.040293 142.886447,26.5787546 144.556777,21.7728938 L144.673993,21.4505495 L144.791209,21.7728938 C145.113553,22.5054945 145.494505,23.5604396 145.846154,24.7912088 L145.846154,24.8498168 C144.263736,28.4249084 143.120879,32.3516484 143.120879,34.4615385 C143.091575,37.2161172 144.322344,39.032967 146.315018,39.0622711 C147.428571,39.0622711 149.919414,38.6227106 149.948718,34.6373626 C150.007326,32.996337 149.59707,30.7106227 148.835165,27.8388278 L148.717949,27.4871795 L149.010989,27.6630037 C150.007326,28.3369963 151.120879,28.6886447 152.263736,28.6886447 L152.263736,28.6886447 Z"></path>
            </g>
        </g>
    </g>
</svg>