<?xml version="1.0" encoding="UTF-8"?>
<svg width="200px" height="100px" viewBox="0 0 200 100" version="1.1" xmlns="http://www.w3.org/2000/svg" xmlns:xlink="http://www.w3.org/1999/xlink">
    <!-- Generator: Sketch 46.2 (44496) - http://www.bohemiancoding.com/sketch -->
    <title>netflix</title>
    <desc>Created with Sketch.</desc>
    <defs></defs>
    <g id="Page-1" stroke="none" stroke-width="1" fill="none" fill-rule="evenodd">
        <g id="netflix">
            <rect id="Rectangle" fill="#FFFFFF" opacity="0" x="0" y="0" width="200" height="100"></rect>
            <g transform="translate(25.000000, 32.000000)" id="Shape" fill-rule="nonzero" fill="#000000">
                <path d="M101.8,30.285 L101.8,0 L95.3,0 L95.3,35.885 C100.4,36.14 105.6,36.39 110.55,36.645 L110.55,30.795 C107.65,30.54 104.7,30.41 101.8,30.285 L101.8,30.285 Z M42.9,5.85 L42.9,0 L27.615,0 L27.615,37.535 C32.705,37.155 37.795,36.775 42.9,36.39 L42.9,30.54 C39.95,30.665 37.03,30.92 34.105,31.175 L34.105,21.76 L41.75,21.76 L41.75,15.78 L34.105,15.78 L34.105,5.85 L42.9,5.85 Z M6.11,39.85 L6.11,17.43 L13.745,38.935 C16.035,38.685 18.325,38.43 20.745,38.175 L20.745,0 L14.51,0 L14.51,23.16 L6.365,0 L0,0 L0,40.6 L6.11,39.85 L6.11,39.85 Z M55.1,35.885 C57.25,35.755 59.4,35.755 61.6,35.63 L61.6,5.85 L67.55,5.85 L67.55,0 L49.1,0 L49.1,5.85 L55.1,5.85 L55.1,35.885 Z M75.05,35.5 L80.15,35.5 L80.15,21.76 L87.9,21.76 L87.9,15.78 L80.15,15.78 L80.15,5.85 L89.05,5.85 L89.05,0 L73.8,0 L73.8,35.5 L75.05,35.5 L75.05,35.5 Z M123.15,37.665 L123.15,0 L116.8,0 L116.8,37.03 C118.85,37.285 121,37.41 123.15,37.665 L123.15,37.665 Z M128,38.045 C130.05,38.3 132.2,38.43 134.25,38.685 L138.8,27.36 L143.3,39.7 C145.45,40.1 147.75,40.35 150,40.6 L142.25,18.83 L150,0 L143.4,0 L139.2,10.305 L135.65,0 L129.15,0 L135.9,18.705 L128,38.045 Z"></path>
            </g>
        </g>
    </g>
</svg>