<?xml version="1.0" encoding="UTF-8"?>
<svg width="200px" height="100px" viewBox="0 0 200 100" version="1.1" xmlns="http://www.w3.org/2000/svg" xmlns:xlink="http://www.w3.org/1999/xlink">
    <!-- Generator: Sketch 46.2 (44496) - http://www.bohemiancoding.com/sketch -->
    <title>redfin</title>
    <desc>Created with Sketch.</desc>
    <defs></defs>
    <g id="Page-1" stroke="none" stroke-width="1" fill="none" fill-rule="evenodd">
        <g id="redfin">
            <rect id="Rectangle" fill="#FFFFFF" opacity="0" x="0" y="0" width="200" height="100"></rect>
            <g transform="translate(30.000000, 31.000000)" fill="#000000">
                <path d="M69.9168859,24.6394172 C69.4832473,26.09199 68.7900083,27.1995171 67.7129059,27.9706245 C66.5290258,28.8063114 64.742015,29.2609326 62.533955,29.2609326 L59.3871607,29.2609326 L59.3824979,9.72003331 L62.0241965,9.7238801 C64.6248626,9.73215654 66.550358,10.1478435 67.8461449,11.1003331 C68.7933888,11.8061615 69.4524729,12.79199 69.8842465,14.1368526 C70.3146211,15.4839301 70.5059117,17.1816486 70.5059117,19.2846794 C70.5059117,21.3898085 70.3492423,23.1839301 69.9168859,24.6394172 Z M72.2707744,7.28081599 C69.678851,5.57097419 66.1884097,4.93392173 61.5390341,4.93345545 L52.7460783,4.92890924 L52.7460783,34.0406328 L61.7229808,34.0455287 C64.9189675,34.0455287 67.6665112,33.6348543 69.9636303,32.7129059 C72.2707744,31.7713739 74.075154,30.2781182 75.2987843,28.124846 C76.521249,25.9739051 77.1609825,23.1691257 77.1609825,19.6041965 C77.1609825,16.5217485 76.7732723,14.0009326 75.9682431,11.9690092 C75.1636803,9.93487094 73.9335221,8.39184013 72.2707744,7.28081599 L72.2707744,7.28081599 Z" id="Fill-1"></path>
                <polyline id="Fill-2" points="81.3295087 34.0406328 87.9781682 34.0406328 87.9781682 21.6341382 95.6632473 21.6341382 95.6632473 16.8912739 87.9781682 16.8912739 87.9781682 9.72189842 99.8499584 9.7238801 99.8499584 4.92890924 81.3295087 4.92890924 81.3295087 34.0406328"></polyline>
                <path d="M104.058118,34.0406328 L110.715404,34.0406328 L110.715404,4.92890924 L104.058118,4.92890924 C104.058118,4.92890924 104.009159,34.0406328 104.058118,34.0406328" id="Fill-3"></path>
                <polyline id="Fill-4" points="139.970858 4.92890924 133.287927 4.92890924 133.287927 21.6341382 120.917569 4.92890924 115.586844 4.92890924 115.586844 34.0406328 122.274438 34.0406328 122.274438 16.8957036 134.510741 34.0406328 139.970858 34.0406328 139.970858 4.92890924"></polyline>
                <path d="M11.765945,16.8912739 L7.45835137,16.8912739 L7.45835137,4.93194005 L11.765945,4.93194005 C13.8977685,4.93194005 15.5230974,5.20786012 16.7407827,6.31422148 C17.1908576,6.73970025 17.5384679,7.25563697 17.7848959,7.87625312 C18.0840133,8.62905912 18.2346211,9.53585346 18.2346211,10.6275271 C18.2346211,12.2171857 18.0886761,16.8912739 11.765945,16.8912739 Z M27.6288426,35.1506078 C27.0698918,34.9267943 26.5093089,34.499567 25.0045129,31.9667444 L18.1741216,20.6399167 C18.3474604,20.5907244 18.5170691,20.535587 18.6846961,20.4781182 C22.7407327,19.0875604 25.1083764,15.3750541 25.1083764,10.0777852 C25.1083764,7.45905079 24.0499251,5.04128226 22.0282598,3.23177352 C21.7336886,2.98138218 21.4288593,2.74229808 21.1030475,2.52442964 C18.4045795,0.743946711 14.7698251,0.0806661116 9.92845962,0.0801998335 L0.772622814,0.0755370525 C0.772389675,0.0755370525 0.768309742,0.0755370525 0.768309742,0.0755370525 L0.768309742,0.0777518734 L0.633438801,0.0777518734 C0.0384679434,0.0701748543 -0.0179517069,0.41253955 0.215770192,0.723080766 C0.426061615,0.999350541 0.664796003,1.36771024 0.768309742,2.30306411 L0.768309742,31.5321732 C0.665145712,32.7219983 0.422797669,33.1010824 0.215770192,33.375254 C-0.020632806,33.6843963 0.0834637802,34.0381848 0.678784346,34.0317735 L7.45835137,34.0317735 L7.45835137,21.6334388 L10.5398668,21.6334388 L16.7494088,32.1858951 C18.4309242,35.0160866 19.9020316,36.5837136 22.830841,36.9186178 C23.2305579,36.971657 23.6566195,36.9967194 24.11602,37.0006828 C24.15204,37.0006828 24.5340383,37.0006828 24.5691257,37.0006828 C25.6222148,37.0006828 26.6509409,36.5782348 27.2909076,36.3055787 C27.3781016,36.2739883 27.4626145,36.2400666 27.5463114,36.2028809 C28.3156703,35.8621482 28.1029309,35.3398002 27.6288426,35.1506078 L27.6288426,35.1506078 Z" id="Fill-5"></path>
                <polyline id="Fill-6" points="36.3473106 21.6389176 44.0490591 21.6389176 44.0490591 16.8960533 36.3473106 16.8960533 36.3473106 9.70814321 48.2139717 9.70814321 48.2139717 4.93392173 29.6852456 4.93392173 29.6852456 34.0455287 48.2175853 34.0455287 48.2175853 29.2176853 36.3473106 29.2176853 36.3473106 21.6389176"></polyline>
            </g>
        </g>
    </g>
</svg>