<?xml version="1.0" encoding="UTF-8"?>
<svg width="200px" height="100px" viewBox="0 0 200 100" version="1.1" xmlns="http://www.w3.org/2000/svg" xmlns:xlink="http://www.w3.org/1999/xlink">
    <!-- Generator: Sketch 46.2 (44496) - http://www.bohemiancoding.com/sketch -->
    <title>shopify</title>
    <desc>Created with Sketch.</desc>
    <defs></defs>
    <g id="Page-1" stroke="none" stroke-width="1" fill="none" fill-rule="evenodd">
        <g id="shopify">
            <rect id="Rectangle" fill="#FFFFFF" opacity="0" x="0" y="0" width="200" height="100"></rect>
            <g transform="translate(75.000000, 21.000000)" id="Shape" fill-rule="nonzero">
                <path d="M43.7057863,11.1992593 C43.6665883,10.9139337 43.4168145,10.7562297 43.2103408,10.7389097 C43.0043229,10.7215896 38.6433074,10.3984332 38.6433074,10.3984332 C38.6433074,10.3984332 35.6145711,7.39157498 35.2822988,7.05884699 C34.9495709,6.726119 34.3000676,6.82730477 34.0480148,6.90159883 C34.0106398,6.91253783 33.3862053,7.10533775 32.3529252,7.42484777 C31.3410676,4.5137058 29.5557313,1.83820817 26.4144145,1.83820817 C26.3278141,1.83820817 26.2384787,1.8418545 26.1491436,1.84686821 C25.2557918,0.665455971 24.1491293,0.152234448 23.193334,0.152234448 C15.8760531,0.152234448 12.3801303,9.29951928 11.2839512,13.9481395 C8.44072215,14.8291849 6.42065307,15.4554428 6.16267492,15.5365737 C4.57560803,16.0342983 4.52547092,16.0844354 4.31717408,17.5798882 C4.15992594,18.7120749 0.00720720721,50.8271623 0.00720720721,50.8271623 L32.3661432,56.8901043 L49.8995406,53.0970053 C49.8995406,53.0970053 43.7445287,11.484585 43.7057863,11.1992593 L43.7057863,11.1992593 Z M30.5643984,7.97817896 C29.7517217,8.22977602 28.8278318,8.51555746 27.8264572,8.82549586 C27.8273689,8.63269594 27.8282805,8.44263078 27.8282805,8.23524553 C27.8282805,6.42575223 27.5771393,4.96904178 27.1742193,3.81406545 C28.7927357,4.01734857 29.8706834,5.85874729 30.5643984,7.97817896 L30.5643984,7.97817896 Z M25.1664566,4.17277355 C25.616323,5.30040238 25.9089414,6.91846312 25.9089414,9.10216145 C25.9089414,9.21383043 25.9080297,9.31592779 25.9071182,9.41939252 C24.1263398,9.97090055 22.1915037,10.5698109 20.2521098,11.1705445 C21.3409963,6.96814443 23.3820318,4.93850373 25.1664566,4.17277355 L25.1664566,4.17277355 Z M22.9923299,2.11487377 C23.3081936,2.11487377 23.6263361,2.22198482 23.9308051,2.43164904 C21.5857564,3.5351209 19.0720649,6.31453904 18.0105259,11.8647153 C16.4590108,12.3451198 14.9425916,12.8145853 13.5405762,13.2489549 C14.7839761,9.01556102 17.7365951,2.11487377 22.9923299,2.11487377 L22.9923299,2.11487377 Z" fill="#000000"></path>
                <path d="M43.2103408,10.7389097 C43.0043229,10.7215896 38.6433074,10.3984332 38.6433074,10.3984332 C38.6433074,10.3984332 35.6145711,7.39157498 35.2822988,7.05884699 C35.1578678,6.93487162 34.9901363,6.87151658 34.8146566,6.84416906 L32.3679664,56.8896486 L49.8995406,53.0970053 C49.8995406,53.0970053 43.7445287,11.484585 43.7057863,11.1992593 C43.6665883,10.9139337 43.4168145,10.7562297 43.2103408,10.7389097" fill="#000000"></path>
                <path d="M26.4144145,20.4267635 L24.2525941,26.8575295 C24.2525941,26.8575295 22.3583236,25.8465834 20.0365203,25.8465834 C16.6326674,25.8465834 16.4612897,27.9828793 16.4612897,28.5211693 C16.4612897,31.4582914 24.1176797,32.5836414 24.1176797,39.4633621 C24.1176797,44.8758893 20.6846562,48.3613289 16.0556351,48.3613289 C10.5009009,48.3613289 7.66040666,44.9041484 7.66040666,44.9041484 L9.14765516,39.9902574 C9.14765516,39.9902574 12.0674572,42.4971121 14.5314674,42.4971121 C16.1413239,42.4971121 16.7962967,41.2295553 16.7962967,40.3033863 C16.7962967,36.4720008 10.5150304,36.3010789 10.5150304,30.0056832 C10.5150304,24.7071039 14.3181569,19.5794467 21.9950574,19.5794467 C24.9531461,19.5794467 26.4144145,20.4267635 26.4144145,20.4267635" fill="#FFFFFF"></path>
            </g>
        </g>
    </g>
</svg>