<?xml version="1.0" encoding="UTF-8"?>
<svg width="200px" height="100px" viewBox="0 0 200 100" version="1.1" xmlns="http://www.w3.org/2000/svg" xmlns:xlink="http://www.w3.org/1999/xlink">
    <!-- Generator: Sketch 46.2 (44496) - http://www.bohemiancoding.com/sketch -->
    <title>twitter</title>
    <desc>Created with Sketch.</desc>
    <defs></defs>
    <g id="Page-1" stroke="none" stroke-width="1" fill="none" fill-rule="evenodd">
        <g id="twitter">
            <rect id="Rectangle" fill="#FFFFFF" opacity="0" x="0" y="0" width="200" height="100"></rect>
            <g transform="translate(72.000000, 28.000000)" id="Shape" fill-rule="nonzero" fill="#000000">
                <path d="M55.2410156,5.3015625 C53.1774156,6.21524793 50.9887422,6.81508901 48.7476563,7.08117188 C51.0785156,5.68054688 52.8714844,3.46710938 53.7152344,0.825820313 C51.4960924,2.14268275 49.0681486,3.07046163 46.5363281,3.5690625 C44.3995353,1.28711663 41.411357,-0.0054264526 38.2851563,1.2490009e-15 C32.0442188,3.38813179e-21 26.9789063,5.06039063 26.9789063,11.3027344 C26.9789063,12.1897266 27.07875,13.0542188 27.2742188,13.8796875 C17.8769531,13.4075391 9.5484375,8.90929688 3.97125,2.06929687 C2.99742187,3.73675781 2.44195312,5.68054687 2.44195312,7.75265625 C2.44195312,11.6725781 4.43707031,15.1330078 7.47,17.1604687 C5.67431056,17.1054323 3.91800726,16.6205441 2.3484375,15.7464844 L2.3484375,15.890625 C2.3484375,21.3658594 6.24585938,25.9347656 11.4152344,26.9753906 C9.75036124,27.4261786 8.00475101,27.4923002 6.31054688,27.16875 C7.74984375,31.6603125 11.9264063,34.9277344 16.8714844,35.0226563 C13.0028906,38.0496094 8.12882813,39.8601563 2.83078125,39.8601563 C1.92989829,39.8591254 1.02981958,39.8063039 0.135,39.7019531 C5.13773437,42.9082031 11.0816016,44.7820313 17.465625,44.7820313 C38.2605469,44.7820313 49.6300781,27.5540625 49.6300781,12.6140625 C49.6300781,12.1253906 49.6300781,11.6367188 49.5949219,11.1515625 C51.8072392,9.55094448 53.7177557,7.5701972 55.2375,5.3015625 L55.2410156,5.3015625 Z"></path>
            </g>
        </g>
    </g>
</svg>